<?xml version="1.0" encoding="UTF-8"?>
<svg id="Layer_1" xmlns="http://www.w3.org/2000/svg" version="1.1" viewBox="0 0 111.487 34.805">
  <!-- Generator: Adobe Illustrator 30.5.1, SVG Export Plug-In . SVG Version: 2.1.4 Build 3)  -->
  <defs>
    <style>
      .st0 {
        fill: #ff5a5f;
        fill-rule: evenodd;
      }
    </style>
  </defs>
  <path class="st0" d="M58.786,8.751c0,1.25-1.014,2.264-2.264,2.264s-2.264-1.014-2.264-2.264,1.014-2.264,2.264-2.264c1.247-.004,2.26,1.003,2.264,2.25,0,.005,0,.009,0,.014ZM49.446,13.301v.56c-.865-.936-2.096-1.445-3.369-1.395-3.684-.04-6.703,2.915-6.743,6.599-.001.1,0,.201.004.301-.131,3.682,2.749,6.773,6.43,6.903.1.004.201.005.302.004,1.282.059,2.521-.467,3.369-1.429v.593c-.004.264.207.481.471.485.005,0,.009,0,.014,0h2.824v-13.129h-2.8c-.265.007-.478.22-.485.485l-.017.023ZM49.446,21.697c-.656.904-1.707,1.436-2.824,1.429-2.23,0-3.935-1.395-3.935-3.76s1.705-3.76,3.935-3.76c1.113.008,2.158.537,2.824,1.429v4.67-.008ZM54.846,12.815h3.37v13.1h-3.37v-13.122.022ZM104.813,12.465c-1.273-.05-2.504.459-3.369,1.395v-7.352h-3.37v19.405h2.823c.265-.007.478-.22.485-.485v-.593c.854.951,2.085,1.474,3.362,1.429,3.695.028,6.714-2.944,6.742-6.64,0-.087,0-.174-.003-.26.119-3.69-2.776-6.778-6.466-6.897-.091-.003-.182-.004-.273-.003h.069ZM104.244,23.093c-1.119.016-2.174-.518-2.824-1.429v-4.671c.687-.866,1.719-1.389,2.824-1.429,2.23,0,3.935,1.395,3.935,3.76s-1.705,3.76-3.935,3.76v.009ZM96.366,18.147v7.803h-3.37v-7.413c0-2.163-.674-3.032-2.58-3.032-1.038.036-2.014.502-2.695,1.287v9.124h-3.37v-13.123h2.648c.265.007.478.22.485.485v.56c.94-.936,2.225-1.441,3.551-1.395,1.333-.049,2.636.397,3.659,1.253,1.186.977,1.637,2.23,1.637,4.427l.035.024ZM76.266,12.467c-1.273-.05-2.504.459-3.369,1.395v-7.352h-3.37v19.403h2.824c.265-.007.478-.22.485-.485v-.593c.855.953,2.09,1.476,3.369,1.429,3.695.028,6.714-2.944,6.742-6.64,0-.087,0-.174-.003-.26.142-3.667-2.716-6.754-6.382-6.896-.119-.005-.238-.006-.357-.004l.061.003ZM75.704,23.093c-1.119.016-2.174-.518-2.824-1.429v-4.671c.687-.866,1.719-1.389,2.824-1.429,2.23,0,3.935,1.395,3.935,3.76s-1.705,3.76-3.935,3.76v.009ZM66.624,12.463c.518-.016,1.035.043,1.536.175v3.1s-2.8-.923-4.528,1.044v9.165h-3.37v-13.154h2.824c.265.007.478.22.485.485v.56c.799-.83,1.882-1.328,3.032-1.395l.021.02ZM31.884,24.728l-.526-1.253-.802-1.78-.034-.034c-2.437-5.311-5.003-10.562-7.696-15.748l-.108-.2-.83-1.67c-.343-.684-.764-1.326-1.253-1.914C19.556.769,17.91-.016,16.174,0c-1.722.006-3.354.77-4.461,2.089-.478.597-.897,1.238-1.253,1.914l-.943,1.846c-2.695,5.23-5.297,10.52-7.702,15.748l-.034.067c-.2.573-.485,1.16-.768,1.786-.175.382-.351.8-.526,1.253-.445,1.2-.588,2.491-.418,3.76.382,2.592,2.103,4.79,4.528,5.782.894.376,1.855.566,2.824.559.302-.005.604-.027.903-.067,1.229-.157,2.414-.56,3.484-1.186,1.625-.969,3.083-2.193,4.319-3.625,1.244,1.424,2.701,2.647,4.319,3.625,1.07.626,2.255,1.029,3.484,1.186.299.04.601.062.903.067.97.01,1.931-.18,2.824-.559,2.425-.992,4.146-3.19,4.528-5.782.257-1.247.147-2.541-.317-3.726l.016-.009ZM16.176,26.541c-1.88-2.372-3.1-4.596-3.518-6.483-.171-.694-.207-1.415-.108-2.123.069-.524.26-1.025.559-1.462.709-.983,1.854-1.557,3.066-1.536,1.216-.047,2.372.53,3.066,1.53.299.437.49.938.559,1.462.1.708.063,1.429-.108,2.123-.418,1.846-1.637,4.043-3.518,6.483l.002.006ZM30.078,28.178c-.267,1.815-1.474,3.353-3.174,4.043-.833.352-1.743.485-2.642.384-.935-.116-1.837-.423-2.648-.903-1.495-.903-2.835-2.04-3.969-3.369,2.298-2.824,3.693-5.4,4.218-7.702.227-.971.286-1.974.175-2.965-.129-.852-.452-1.664-.943-2.372-1.121-1.6-2.965-2.537-4.919-2.5-1.942-.025-3.775.898-4.912,2.473-.491.708-.814,1.52-.943,2.372-.147.99-.088,1.999.175,2.965.526,2.298,1.954,4.912,4.218,7.736-1.126,1.337-2.467,2.475-3.969,3.369-.811.49-1.715.807-2.655.93-.898.1-1.807-.02-2.648-.35-1.7-.69-2.907-2.228-3.174-4.043-.11-.911-.001-1.835.317-2.695.108-.35.276-.674.45-1.112.243-.56.526-1.152.802-1.745l.034-.067c2.406-5.2,4.98-10.485,7.67-15.647l.1-.25.836-1.604c.271-.553.608-1.071,1.004-1.543,1.31-1.539,3.619-1.725,5.158-.415.149.127.288.266.415.415.376.471.695.984.95,1.53l.836,1.604.1.2c2.648,5.196,5.236,10.485,7.635,15.68v.034c.276.56.526,1.186.802,1.745.175.418.35.768.45,1.112.289.867.373,1.79.243,2.695l.008-.005Z"/>
</svg>