<?xml version="1.0" encoding="UTF-8"?>
<svg id="Layer_1" xmlns="http://www.w3.org/2000/svg" version="1.1" xmlns:xodm="http://www.corel.com/coreldraw/odm/2003" viewBox="0 0 1716 720">
  <!-- Generator: Adobe Illustrator 30.2.1, SVG Export Plug-In . SVG Version: 2.1.1 Build 1)  -->
  <defs>
    <style>
      .st0 {
        fill: #cd3440;
      }
    </style>
  </defs>
  <path id="Camada_x5F_1" class="st0" d="M542.5537,561.5373l-10.5157-4.803c-10.5157-4.803-16.1669-7.8893-16.1669-16.0034,0-10.0456,9.831-13.3056,20.7963-13.3056,8.7375.0511,17.3932,1.6044,25.5993,4.568.4088-2.4527.6234-4.9359.6336-7.4295,0-2.2073-.2248-4.4045-.6336-6.571-8.8806-3.6176-18.405-5.406-28.0009-5.2527-19.713,0-36.3398,11.1391-36.3398,27.5921,0,14.0004,5.7126,22.0634,25.1497,30.4024l8.1039,3.4848c12.4573,5.7126,17.148,10.0558,17.148,18.6298,0,11.4252-10.9142,15.5333-21.4299,15.5333-10.5872-.0102-21.0722-2.1052-30.8521-6.1623-.6336,2.3607-.9197,4.803-.8584,7.2557,0,2.422.2861,4.8439.8584,7.1944,10.4339,4.6906,21.8284,6.8571,33.2536,6.3461,20.5715,0,37.1983-11.4252,37.1983-30.0039,0-15.0837-7.6542-24.046-24.0562-31.4755h.1124ZM1032.2319,608.5052h0c-18.7933,0-28.563-14.399-28.563-40.4582s10.2806-40.683,28.8491-40.683,28.9104,13.7756,28.9104,40.683-10.1069,40.4582-29.1352,40.4582h-.0613,0ZM1032.2319,512.6788h0c-29.0842,0-47.254,20.3466-47.254,55.3682s17.9451,55.1433,47.0292,55.1433,47.4789-20.7963,47.4789-55.1433c0-35.1953-17.1378-55.3682-47.254-55.3682h0ZM1141.5376,561.476h0l-10.5156-4.7928c-10.5055-4.803-16.1669-7.8893-16.1669-16.0034,0-10.0558,9.831-13.3158,20.7452-13.3158,8.7273.0613,17.383,1.6044,25.5993,4.5782.4497-2.4527.6847-4.9359.6847-7.4295,0-2.2073-.2248-4.4147-.6847-6.571-8.8806-3.6483-18.405-5.4469-28.0009-5.263-19.6517,0-36.2785,11.1492-36.2785,27.6023,0,14.0004,5.7126,22.0532,25.1395,30.3922l8.1141,3.4848c12.4573,5.7228,17.1378,10.0558,17.1378,18.6298,0,11.4252-10.9142,15.5435-21.4298,15.5435-10.5872-.0102-21.0722-2.1052-30.8521-6.1725-1.1446,4.752-1.1446,9.7083,0,14.4603,10.4339,4.6804,21.8284,6.8571,33.2536,6.3359,20.5715,0,37.1983-11.4252,37.1983-29.9936,0-15.0837-7.6542-24.0563-24.0562-31.4857h.1124ZM963.7217,513.5986h0c-11.6602.0511-22.5233,5.9476-28.9104,15.7071-.2248-4.987-.7971-9.9434-1.7168-14.8487-2.4935-.6336-5.0688-.9198-7.6542-.8584-2.6468,0-5.2936.2862-7.8791.8584v107.2414c2.8716.5723,5.8046.8584,8.7375.8584,3.1476,0,6.2747-.2862,9.3711-.8584v-60.6822c0-19.4269,12.2836-32.5587,27.8271-32.5587,2.7796-.1431,5.5593.0715,8.2878.6234.6131-2.5651.9198-5.1914.9095-7.828,0-2.2789-.2248-4.5578-.6847-6.7959-2.7388-.5212-5.5082-.8073-8.2878-.8584ZM874.0167,514.457h0v91.4219c-7.317,1.7577-14.818,2.6365-22.3394,2.6263-20.3466,0-31.0258-10.9755-31.0258-34.7968v-59.2515c-2.9023-.5723-5.8454-.8584-8.7988-.8584-3.1476,0-6.2849.2862-9.3711.8584v59.7114c0,32.3951,17.1378,48.7972,48.1023,48.7972,14.072-.235,28.0622-2.2891,41.6028-6.1214v-102.3872c-2.9738-.5723-5.9987-.8584-9.0339-.8584-3.0658,0-6.1214.2862-9.1361.8584h0ZM629.4688,512.6788h0c-28.5732,0-46.8044,22.3394-46.8044,55.6033s18.8035,54.6733,51.4235,54.6733c10.6894.1226,21.297-1.8191,31.2608-5.7126.4599-2.2891.6847-4.6294.6847-6.9695,0-2.3607-.2248-4.7111-.6847-7.0309-9.6266,3.3724-19.7437,5.1506-29.9425,5.263-21.8898,0-33.9383-14.0004-35.0215-36.7383h70.6767c.4088-3.9344.6132-7.879.6234-11.8339,0-29.0842-17.1378-47.254-41.9911-47.254h-.2248v-.0002ZM688.0356,568.5068h0c0,31.2506,18.8444,50.5141,45.7007,50.5141,8.9214.1124,17.7714-1.6044,26.0081-5.0279v8.104c0,22.2884-11.4354,31.4857-31.9455,31.4857-11.0368.0614-21.9511-2.3403-31.9353-7.0207-.419,2.3913-.6234,4.8235-.6336,7.2557,0,2.4833.2248,4.9666.6336,7.4192,10.6792,4.752,22.2474,7.1433,33.9383,7.0309,30.3922,0,48.1125-17.1378,48.1125-48.1636v-101.2529c-10.996-3.9957-22.5949-6.0703-34.2857-6.1111-35.4303,0-55.593,23.5962-55.593,55.7666h0s0,0,0,0ZM600.6095,558.3897c1.5431-19.713,13.5406-31.5367,28.563-31.5367,16.2283,0,25.2008,13.142,25.2008,31.5367h-53.7638M759.7343,599.9926h0c-7.2148,3.076-15.0019,4.6294-22.8503,4.568-18.3437,0-30.1674-14.0004-30.1674-35.6552,0-25.5993,13.142-41.5415,35.6551-41.5415,5.9068-.2248,11.8135.511,17.4852,2.1767l-.1226,70.4519ZM856.0975,373.221c-2.4373.6881-13.2242,1.7376-18.4486,1.7376-19.8364,0-30.6233-5.9124-30.6233-19.8364s10.787-19.4865,30.6233-19.4865c6.6121,0,14.2621.6881,18.4486,1.0379v36.5474ZM829.9872,243.7658h0c-17.0492-.3498-32.0111,1.7376-46.623,5.2127-2.7871,9.7491-2.4373,24.0112,0,34.1101,18.0871-4.1749,28.1861-4.5247,39.6727-4.5247,22.262,0,33.0606,9.0494,33.0606,27.4864v1.7376c-6.6121-.6881-14.6236-1.3877-20.1862-1.3877-36.8856,0-68.5584,13.2243-68.5584,48.7221,0,40.0226,28.5359,53.585,69.9462,53.585,19.4865,0,40.7106-3.4751,60.2087-9.3876v-90.1323c0-43.1595-23.3232-64.3836-67.5205-65.4214h0ZM750.3036,245.8533c-20.5361,0-32.3609,7.9998-43.4977,22.2736-1.0495-7.3118-2.4373-13.2243-4.8745-20.536-4.1748-1.3994-11.4867-1.7376-17.7489-1.7376-5.9241,0-13.5741.6881-17.3991,1.7376v157.6412c5.2127,1.3877,13.9239,1.7376,21.5739,1.7376,7.3118,0,17.0492-.6997,21.5739-1.7376v-76.9081c0-30.6233,16.0114-46.9845,37.5853-46.9845,3.825,0,10.4371,0,14.2738.6997,2.4373-10.0873,2.7755-24.7109.688-34.7982-2.4373-.6997-8.6995-1.3877-12.1747-1.3877h0ZM554.0276,373.5592c-4.5247,0-11.475,0-16.3495-1.7376v-86.6455c5.9124-3.137,14.2621-4.8745,25.0491-4.8745,21.5856,0,33.0606,14.9618,33.0606,43.1479,0,29.5854-13.5741,50.1099-41.7601,50.1099h0ZM570.0389,244.4539h0c-12.5245,0-24.7109,2.7871-32.3609,6.6121v-77.258c-12.1863,4.5247-25.0607,10.7986-35.8477,19.4981-5.5626,4.513-7.3118,9.0494-7.3118,15.6498v190.7018c11.4867,4.8745,34.8098,9.0494,57.0718,9.0494,56.3837,0,88.7446-34.4483,88.7446-84.2083,0-49.4218-22.9733-80.0451-70.296-80.0451h0ZM1023.1264,371.1336c-7.3002,2.0874-12.5245,2.4256-18.437,2.4256-28.5359,0-39.6727-18.7868-39.6727-45.935,0-30.2735,11.1368-48.7104,39.3229-48.7104,8.3497,0,13.5741,1.0379,18.7868,2.4256v89.7942ZM1023.1264,208.956h0v37.9352c-7.65-2.0874-15.6615-2.4373-22.6118-2.4373-47.6842,0-80.0451,32.0227-80.0451,83.1704,0,52.2089,31.6729,81.083,81.083,81.083,22.6235,0,44.8971-3.1253,64.7334-9.7374v-225.1618c-12.1864,4.5247-25.0607,10.7986-35.8477,19.4981-5.5743,4.513-7.3118,9.0494-7.3118,15.6498ZM1331.7967,311.6246l-17.3991-7.3118c-10.0873-4.1749-15.9997-7.6617-15.9997-14.2738,0-10.0873,9.0377-12.1747,20.8743-12.1747s24.0112,1.3994,40.7222,6.6121c2.0874-11.4866,2.0874-22.2736,0-32.3609-10.4488-5.5743-29.9353-8.3497-46.9845-8.3497-33.4105,0-58.8093,18.0988-58.8093,45.2352,0,24.3611,10.4371,36.5358,39.6727,48.3722l13.5624,5.5626c12.886,5.2244,16.7111,8.3613,16.7111,16.7111,0,12.5245-12.5245,14.612-22.9733,14.612-17.3991,0-30.6233-3.4751-47.3227-9.3992-2.7871,10.0989-2.7871,23.3232,0,33.7603,14.2621,7.65,33.7603,10.0873,54.2846,10.0873,33.0606,0,59.5091-17.3991,59.5091-48.7104,0-25.7605-11.1368-37.9352-35.8477-48.3722h-.0001ZM1466.1264,373.221c-21.5739,0-35.836-17.0609-35.836-46.9845,0-28.5359,11.475-46.9728,36.1859-46.9728,10.4371,0,17.7489,1.7376,27.498,5.5626,2.7755-9.7491,7.9998-20.8859,15.3117-30.2735-13.5741-6.9619-26.7983-10.787-48.3722-10.787-47.6842,0-75.1706,33.7486-75.1706,82.4707,0,50.4597,28.186,82.4707,76.9081,82.4707,17.7489,0,34.0985-3.1253,47.3227-10.4371-5.9124-7.65-12.5245-18.0988-16.3496-30.2735-12.1864,4.8745-17.3991,5.2244-27.498,5.2244h0ZM1586.8821,373.9091c-24.0112,0-31.323-19.4865-31.323-47.3227,0-27.1482,7.3118-48.0224,31.323-48.0224,24.7108,0,31.6729,20.1745,31.6729,48.0224,0,29.2239-8.0115,47.3227-31.6729,47.3227ZM1586.8821,243.7658h0c-48.3722,0-75.5087,33.0606-75.5087,82.8206,0,50.4597,28.5243,82.1208,75.5087,82.1208,48.7221,0,75.8586-32.3609,75.8586-82.1208,0-50.1098-27.1365-82.8206-75.8586-82.8206ZM1133.0951,307.4381c3.137-19.1366,14.612-30.6117,32.0111-30.6117,19.4981,0,27.1482,13.2126,27.8479,30.6117h-59.8589ZM1165.8058,243.7658h0c-46.6347,0-75.1706,31.3113-75.1706,83.5202s30.2851,81.4212,82.1325,81.4212c17.7489,0,36.8856-3.1253,49.072-9.0494,2.4373-10.0873,2.4373-23.3115,0-33.3988-16.0113,4.5247-29.5854,7.3002-44.5473,7.3002-24.0112,0-40.7105-9.0377-44.1974-34.4483h98.1322c1.3994-3.825,1.7376-16.6994,1.7376-21.9238,0-46.9728-26.4368-73.4213-67.1591-73.4213h0ZM230.0644,127.9092c-21.7422,0-45.5138,1.9971-68.9946,5.9849,23.7716-30.5192,61.4585-50.1996,103.4886-50.1996,31.0169,0,62.0337,11.6984,82.9098,29.0973,3.7681,3.1347,6.6636,3.419,9.5655.5688,2.8955-2.8503,2.6111-5.707-.5817-9.4104-27.2488-31.6632-67.2495-53.0563-114.5019-52.1967-61.7493,1.1375-114.2175,40.214-134.2211,94.4079-18.265,5.707-35.0757,12.5515-49.8571,20.8179-4.0654,2.288-5.5131,5.1382-4.0654,8.5573,1.4542,3.1411,4.3497,4.2786,8.4086,3.1411,12.7583-3.7099,25.8011-6.8445,39.4255-9.7012-1.4477,7.1289-2.3138,14.5486-2.3138,22.2463-1.1634,49.9152,25.5038,97.2646,66.6678,123.2208,4.0589,2.5659,7.5426,2.5659,9.8563-.5752,2.3203-3.1347,2.0295-5.9849-1.4477-9.126-26.0919-23.3838-40.5824-58.1817-40.5824-92.6951,0-17.3989,3.4772-34.2291,10.1472-49.3465,13.6244-1.1375,28.4057-1.9907,44.6413-1.9907,105.5181,0,194.5162,34.7914,194.5162,80.428,0,23.1059-29.2783,46.2054-64.0696,61.6072-8.4022,3.7099-9.2747,6.2758-8.1178,9.9856,1.1634,3.419,4.9314,4.563,9.2811,3.1347,60.8768-19.9648,106.9658-52.7655,106.9658-92.4107,0-53.903-86.9623-95.5454-197.1209-95.5454h0ZM280.4514,402.0972v-115.4908c0-4.4273-4.2786-6.0431-7.8011-4.033l-29.3558,16.8948v108.1938l31.5339.0452c3.1023.0065,5.623-2.5077,5.623-5.61ZM207.5531,324.2222v79.8657c0,1.9971,1.6223,3.6194,3.6194,3.6194h22.214v-102.545l-22.1752,12.7713c-2.2621,1.2862-3.6581,3.3156-3.6581,6.2887Z"/>
</svg>