<?xml version="1.0" encoding="UTF-8"?>
<svg id="Layer_1" xmlns="http://www.w3.org/2000/svg" version="1.1" xmlns:xodm="http://www.corel.com/coreldraw/odm/2003" viewBox="0 0 1609 616">
  <!-- Generator: Adobe Illustrator 30.5.1, SVG Export Plug-In . SVG Version: 2.1.4 Build 3)  -->
  <defs>
    <style>
      .st0 {
        fill: #cd3440;
      }
    </style>
  </defs>
  <path id="Camada_x5F_1" class="st0" d="M489.1,509.4l-10.5-4.8c-10.5-4.8-16.2-7.9-16.2-16s9.8-13.3,20.8-13.3c8.7,0,17.4,1.6,25.6,4.6.4-2.5.6-4.9.6-7.4,0-2.2-.2-4.4-.6-6.6-8.9-3.6-18.4-5.4-28-5.2-19.7,0-36.3,11.1-36.3,27.6s5.7,22,25.1,30.4l8.1,3.5c12.5,5.7,17.1,10,17.1,18.6s-10.9,15.5-21.4,15.5c-10.6,0-21.1-2.1-30.8-6.2-.6,2.4-.9,4.8-.9,7.2,0,2.4.3,4.8.9,7.2,10.4,4.7,21.8,6.9,33.2,6.3,20.6,0,37.2-11.4,37.2-30s-7.7-24-24-31.4h.1ZM978.7,556.3h0c-18.8,0-28.6-14.4-28.6-40.4s10.3-40.6,28.8-40.6,28.9,13.8,28.9,40.6-10.1,40.4-29.1,40.4h0ZM978.7,460.5h0c-29.1,0-47.2,20.3-47.2,55.3s17.9,55.1,47,55.1,47.5-20.8,47.5-55.1-17.1-55.3-47.2-55.3h0ZM1088,509.3h0l-10.5-4.8c-10.5-4.8-16.2-7.9-16.2-16s9.8-13.3,20.7-13.3c8.7,0,17.4,1.6,25.6,4.6.4-2.5.7-4.9.7-7.4s-.2-4.4-.7-6.6c-8.9-3.6-18.4-5.4-28-5.3-19.6,0-36.3,11.1-36.3,27.6s5.7,22,25.1,30.4l8.1,3.5c12.5,5.7,17.1,10,17.1,18.6s-10.9,15.5-21.4,15.5c-10.6,0-21.1-2.1-30.8-6.2-1.1,4.7-1.1,9.7,0,14.4,10.4,4.7,21.8,6.9,33.2,6.3,20.6,0,37.2-11.4,37.2-30s-7.7-24-24-31.5h.1,0ZM910.2,461.5h0c-11.7,0-22.5,5.9-28.9,15.7-.2-5-.8-9.9-1.7-14.8-2.5-.6-5.1-.9-7.7-.9-2.6,0-5.3.3-7.9.9v107.1c2.9.6,5.8.9,8.7.9s6.3-.3,9.4-.9v-60.6c0-19.4,12.3-32.5,27.8-32.5,2.8-.1,5.6,0,8.3.6.6-2.6.9-5.2.9-7.8,0-2.3-.2-4.6-.7-6.8-2.7-.5-5.5-.8-8.3-.9ZM820.5,462.3h0v91.3c-7.3,1.8-14.8,2.6-22.3,2.6-20.3,0-31-11-31-34.8v-59.2c-2.9-.6-5.8-.9-8.8-.9s-6.3.3-9.4.9v59.7c0,32.4,17.1,48.8,48.1,48.8,14.1-.2,28.1-2.3,41.6-6.1v-102.3c-3-.6-6-.9-9-.9s-6.1.3-9.1.9h0ZM576,460.5h0c-28.6,0-46.8,22.3-46.8,55.6s18.8,54.6,51.4,54.6c10.7.1,21.3-1.8,31.3-5.7.5-2.3.7-4.6.7-7s-.2-4.7-.7-7c-9.6,3.4-19.7,5.1-29.9,5.3-21.9,0-33.9-14-35-36.7h70.7c.4-3.9.6-7.9.6-11.8,0-29.1-17.1-47.2-42-47.2h-.2s0,0,0,0ZM634.6,516.3h0c0,31.2,18.8,50.5,45.7,50.5,8.9.1,17.8-1.6,26-5v8.1c0,22.3-11.4,31.5-31.9,31.5-11,0-21.9-2.3-31.9-7-.4,2.4-.6,4.8-.6,7.2,0,2.5.2,5,.6,7.4,10.7,4.7,22.2,7.1,33.9,7,30.4,0,48.1-17.1,48.1-48.1v-101.2c-11-4-22.6-6.1-34.3-6.1-35.4,0-55.6,23.6-55.6,55.7h0ZM547.2,506.2c1.5-19.7,13.5-31.5,28.6-31.5s25.2,13.1,25.2,31.5h-53.7M706.3,547.8h0c-7.2,3.1-15,4.6-22.8,4.6-18.3,0-30.2-14-30.2-35.6s13.1-41.5,35.6-41.5c5.9-.2,11.8.5,17.5,2.2v70.4q-.1,0-.1,0ZM802.6,321.2c-2.4.7-13.2,1.7-18.4,1.7-19.8,0-30.6-5.9-30.6-19.8s10.8-19.5,30.6-19.5,14.3.7,18.4,1v36.5ZM776.5,191.9h0c-17-.3-32,1.7-46.6,5.2-2.8,9.7-2.4,24,0,34.1,18.1-4.2,28.2-4.5,39.7-4.5,22.3,0,33.1,9,33.1,27.5v1.7c-6.6-.7-14.6-1.4-20.2-1.4-36.9,0-68.5,13.2-68.5,48.7s28.5,53.5,69.9,53.5,40.7-3.5,60.2-9.4v-90.1c0-43.1-23.3-64.3-67.5-65.4h0ZM696.8,194c-20.5,0-32.4,8-43.5,22.3-1-7.3-2.4-13.2-4.9-20.5-4.2-1.4-11.5-1.7-17.7-1.7s-13.6.7-17.4,1.7v157.5c5.2,1.4,13.9,1.7,21.6,1.7s17-.7,21.6-1.7v-76.8c0-30.6,16-46.9,37.6-46.9s10.4,0,14.3.7c2.4-10.1,2.8-24.7.7-34.8-2.4-.7-8.7-1.4-12.2-1.4h0ZM500.6,321.5c-4.5,0-11.5,0-16.3-1.7v-86.6c5.9-3.1,14.3-4.9,25-4.9,21.6,0,33.1,14.9,33.1,43.1s-13.6,50.1-41.7,50.1h0ZM516.6,192.6h0c-12.5,0-24.7,2.8-32.4,6.6v-77.2c-12.2,4.5-25.1,10.8-35.8,19.5-5.6,4.5-7.3,9-7.3,15.6v190.5c11.5,4.9,34.8,9,57.1,9,56.4,0,88.7-34.4,88.7-84.1s-23-80-70.3-80h0ZM969.6,319.1c-7.3,2.1-12.5,2.4-18.4,2.4-28.5,0-39.7-18.8-39.7-45.9s11.1-48.7,39.3-48.7,13.6,1,18.8,2.4v89.7ZM969.6,157.1h0v37.9c-7.6-2.1-15.7-2.4-22.6-2.4-47.7,0-80,32-80,83.1s31.7,81,81.1,81,44.9-3.1,64.7-9.7V122c-12.2,4.5-25.1,10.8-35.8,19.5-5.6,4.5-7.3,9-7.3,15.6h0ZM1278.2,259.7l-17.4-7.3c-10.1-4.2-16-7.7-16-14.3,0-10.1,9-12.2,20.9-12.2s24,1.4,40.7,6.6c2.1-11.5,2.1-22.3,0-32.3-10.4-5.6-29.9-8.3-47-8.3-33.4,0-58.8,18.1-58.8,45.2s10.4,36.5,39.7,48.3l13.6,5.6c12.9,5.2,16.7,8.4,16.7,16.7,0,12.5-12.5,14.6-23,14.6-17.4,0-30.6-3.5-47.3-9.4-2.8,10.1-2.8,23.3,0,33.7,14.3,7.6,33.8,10.1,54.3,10.1,33.1,0,59.5-17.4,59.5-48.7s-11.1-37.9-35.8-48.3h0,0ZM1412.4,321.2c-21.6,0-35.8-17-35.8-46.9s11.5-46.9,36.2-46.9,17.7,1.7,27.5,5.6c2.8-9.7,8-20.9,15.3-30.2-13.6-7-26.8-10.8-48.4-10.8-47.7,0-75.1,33.7-75.1,82.4s28.2,82.4,76.9,82.4,34.1-3.1,47.3-10.4c-5.9-7.6-12.5-18.1-16.3-30.2-12.2,4.9-17.4,5.2-27.5,5.2h0ZM1533.2,321.9c-24,0-31.3-19.5-31.3-47.3s7.3-48,31.3-48,31.7,20.2,31.7,48-8,47.3-31.7,47.3ZM1533.2,191.9h0c-48.4,0-75.5,33-75.5,82.7s28.5,82,75.5,82,75.8-32.3,75.8-82-27.1-82.7-75.8-82.7ZM1079.5,255.5c3.1-19.1,14.6-30.6,32-30.6s27.1,13.2,27.8,30.6h-59.8ZM1112.2,191.9h0c-46.6,0-75.1,31.3-75.1,83.4s30.3,81.3,82.1,81.3,36.9-3.1,49.1-9c2.4-10.1,2.4-23.3,0-33.4-16,4.5-29.6,7.3-44.5,7.3-24,0-40.7-9-44.2-34.4h98.1c1.4-3.8,1.7-16.7,1.7-21.9,0-46.9-26.4-73.4-67.1-73.4h0ZM176.8,76.1c-21.7,0-45.5,2-69,6,23.8-30.5,61.4-50.2,103.5-50.2s62,11.7,82.9,29.1c3.8,3.1,6.7,3.4,9.6.6,2.9-2.8,2.6-5.7-.6-9.4C275.9,20.5,235.9-.8,188.6,0,126.9,1.2,74.5,40.2,54.5,94.3c-18.3,5.7-35.1,12.5-49.8,20.8-4.1,2.3-5.5,5.1-4.1,8.5,1.5,3.1,4.3,4.3,8.4,3.1,12.8-3.7,25.8-6.8,39.4-9.7-1.4,7.1-2.3,14.5-2.3,22.2-1.2,49.9,25.5,97.2,66.6,123.1,4.1,2.6,7.5,2.6,9.9-.6,2.3-3.1,2-6-1.4-9.1-26.1-23.4-40.6-58.1-40.6-92.6s3.5-34.2,10.1-49.3c13.6-1.1,28.4-2,44.6-2,105.5,0,194.5,34.8,194.5,80.4s-29.3,46.2-64.1,61.6c-8.4,3.7-9.3,6.3-8.1,10,1.2,3.4,4.9,4.6,9.3,3.1,60.9-19.9,106.9-52.7,106.9-92.3s-86.9-95.5-197.1-95.5h0ZM227.1,350.1v-115.4c0-4.4-4.3-6-7.8-4l-29.3,16.9v108.1h31.5c3.1,0,5.6-2.5,5.6-5.6ZM154.2,272.3v79.8c0,2,1.6,3.6,3.6,3.6h22.2v-102.5l-22.2,12.8c-2.3,1.3-3.7,3.3-3.7,6.3h0Z"/>
</svg>