<?xml version="1.0" encoding="utf-8"?>
<!-- Generator: Adobe Illustrator 27.0.0, SVG Export Plug-In . SVG Version: 6.00 Build 0)  -->
<svg version="1.1"
	 id="svg60" xmlns:cc="http://creativecommons.org/ns#" xmlns:sodipodi="http://sodipodi.sourceforge.net/DTD/sodipodi-0.dtd" xmlns:rdf="http://www.w3.org/1999/02/22-rdf-syntax-ns#" xmlns:inkscape="http://www.inkscape.org/namespaces/inkscape" xmlns:svg="http://www.w3.org/2000/svg" xmlns:dc="http://purl.org/dc/elements/1.1/" inkscape:export-filename="C:\Users\suitedoalex\sites\cvc-logo-0.png" inkscape:export-xdpi="561.73712" inkscape:export-ydpi="561.73712" inkscape:version="0.92.4 (5da689c313, 2019-01-14)" sodipodi:docname="cvc-logo.svg"
	 xmlns="http://www.w3.org/2000/svg" xmlns:xlink="http://www.w3.org/1999/xlink" x="0px" y="0px" viewBox="0 0 700 700"
	 style="enable-background:new 0 0 700 700;" xml:space="preserve">
<style type="text/css">
	.st0{fill:url(#path2-1_00000161617478347638540040000006838106095574755240_);}
	.st1{fill:#0A00B4;}
	.st2{fill:url(#path10-7_00000088110682411291578720000014161427715372715946_);}
</style>
<sodipodi:namedview  bordercolor="#666666" borderopacity="1" gridtolerance="10" guidetolerance="10" id="namedview62" inkscape:current-layer="svg60" inkscape:cx="15.086893" inkscape:cy="71.787858" inkscape:pageopacity="0" inkscape:pageshadow="2" inkscape:window-height="837" inkscape:window-maximized="1" inkscape:window-width="1600" inkscape:window-x="-8" inkscape:window-y="-8" inkscape:zoom="0.34302326" objecttolerance="10" pagecolor="#ffffff" showgrid="false">
	</sodipodi:namedview>
<g>
	
		<linearGradient id="path2-1_00000011010673697464155370000015517381891859752367_" gradientUnits="userSpaceOnUse" x1="-171.8738" y1="48.6936" x2="-122.7859" y2="48.6936" gradientTransform="matrix(9.048 0 0 -9.048 1653.9236 994.6397)">
		<stop  offset="0" style="stop-color:#4BE641"/>
		<stop  offset="2.676210e-02" style="stop-color:#43CB4E"/>
		<stop  offset="7.550270e-02" style="stop-color:#38A163"/>
		<stop  offset="0.1299" style="stop-color:#2D7A77"/>
		<stop  offset="0.1888" style="stop-color:#235987"/>
		<stop  offset="0.2534" style="stop-color:#1B3D95"/>
		<stop  offset="0.3258" style="stop-color:#1527A1"/>
		<stop  offset="0.4093" style="stop-color:#1015A9"/>
		<stop  offset="0.5111" style="stop-color:#0D09B0"/>
		<stop  offset="0.6503" style="stop-color:#0B02B3"/>
		<stop  offset="1" style="stop-color:#0A00B4"/>
	</linearGradient>
	
		<path id="path2-1" inkscape:connector-curvature="0" inkscape:export-filename="C:\Users\suitedoalex\sites\cvc-logo-5.png" inkscape:export-xdpi="154.7299" inkscape:export-ydpi="154.7299" style="fill:url(#path2-1_00000011010673697464155370000015517381891859752367_);" d="
		M538.2,485.7c-7-3.3-16.2-6-25.1-7.4c-10-1.5-20.2,2-27.2,9.4C421.9,556,344.8,593.5,268.9,593.5c-68.3,0-126.6-41.5-152.2-108.6
		c-2-5.4-7.5-7.9-13.4-6.5c-2.3,0.5-4.8,2.1-4.4,4.2c17.5,83.6,81.7,139.7,167.5,146.6c104.9,8.4,211.6-41,275-131.3
		C544.5,493.6,542.8,487.8,538.2,485.7L538.2,485.7z"/>
	
		<path id="path4-2" inkscape:connector-curvature="0" inkscape:export-filename="C:\Users\suitedoalex\sites\cvc-logo-5.png" inkscape:export-xdpi="154.7299" inkscape:export-ydpi="154.7299" class="st1" d="
		M583,253.5c27.9,0,51.7,7.5,70.7,25.9c2,1.9,2,5.1-0.2,6.9l-30,26.4c-0.9,0.8-2,1.2-3.2,1.2c-1.2,0-2.4-0.4-3.3-1.3
		c-9-8-19.5-11.3-31.9-11.3c-27.3,0-45.4,20-45.4,45.5c0,28.3,18.1,52.2,48.6,52.2c13.1,0,25.4-5.1,34.9-13.8c1-0.9,2.2-1.3,3.3-1.3
		c1.1,0,2.2,0.4,3.1,1.1l31.4,26.2c2.3,1.9,2.3,5.1,0.2,7.1c-20.3,18.9-46.7,28.1-75.6,28.1c-57.7,0-103.4-38.9-103.4-96.3
		C482.3,295.2,527.8,253.5,583,253.5L583,253.5z"/>
	
		<path id="path6-8" inkscape:connector-curvature="0" inkscape:export-filename="C:\Users\suitedoalex\sites\cvc-logo-5.png" inkscape:export-xdpi="154.7299" inkscape:export-ydpi="154.7299" class="st1" d="
		M459,256.5c3.5,0,5.9,3.6,4.4,6.8L388.8,420c-6.9,14.5-26.2,23.7-37.9,23.7c-16.3,0-31.1-9.3-37.9-23.8L239,263.3
		c-1.5-3.2,1-6.7,4.4-6.7h49.3c1.9,0,3.7,1.1,4.5,2.9l50.7,118.2c0.6,1.5,2,2.2,3.4,2.2c1.4,0,2.8-0.7,3.4-2.3l50.4-118.2
		c0.8-1.8,2.6-2.9,4.5-2.9H459z"/>
	
		<path id="path8-9" inkscape:connector-curvature="0" inkscape:export-filename="C:\Users\suitedoalex\sites\cvc-logo-5.png" inkscape:export-xdpi="154.7299" inkscape:export-ydpi="154.7299" class="st1" d="
		M138,253.5c27.9,0,51.7,7.5,70.7,25.9c2,1.9,2,5.1-0.2,6.9l-30,26.4c-0.9,0.8-2,1.2-3.2,1.2c-1.2,0-2.4-0.4-3.3-1.3
		c-9-8-19.5-11.3-31.9-11.3c-27.3,0-45.4,20-45.4,45.5c0,28.3,18.1,52.2,48.6,52.2c13.1,0,25.4-5.1,34.9-13.8c1-0.9,2.2-1.3,3.3-1.3
		c1.1,0,2.2,0.4,3.1,1.1l31.4,26.2c2.3,1.9,2.3,5.1,0.2,7.1c-20.3,18.9-46.7,28.1-75.6,28.1c-57.7,0-103.4-38.9-103.4-96.3
		C37.3,295.2,82.8,253.5,138,253.5L138,253.5z"/>
	
		<linearGradient id="path10-7_00000077320162737129924600000004692344847169005484_" gradientUnits="userSpaceOnUse" x1="-166.8174" y1="93.7994" x2="-117.7296" y2="93.7994" gradientTransform="matrix(9.048 0 0 -9.048 1653.9236 994.6397)">
		<stop  offset="0" style="stop-color:#0A00B4"/>
		<stop  offset="0.3292" style="stop-color:#0B02B3"/>
		<stop  offset="0.4696" style="stop-color:#0D09AF"/>
		<stop  offset="0.574" style="stop-color:#1016A9"/>
		<stop  offset="0.6606" style="stop-color:#1527A0"/>
		<stop  offset="0.7362" style="stop-color:#1C3F95"/>
		<stop  offset="0.8042" style="stop-color:#245B86"/>
		<stop  offset="0.8663" style="stop-color:#2D7D76"/>
		<stop  offset="0.9241" style="stop-color:#38A462"/>
		<stop  offset="0.9761" style="stop-color:#45D04C"/>
		<stop  offset="1" style="stop-color:#4BE641"/>
	</linearGradient>
	
		<path id="path10-7" inkscape:connector-curvature="0" inkscape:export-filename="C:\Users\suitedoalex\sites\cvc-logo-5.png" inkscape:export-xdpi="154.7299" inkscape:export-ydpi="154.7299" style="fill:url(#path10-7_00000077320162737129924600000004692344847169005484_);" d="
		M149.3,214.3c7,3.3,16.2,6,25.1,7.4c10.1,1.5,20.2-2,27.2-9.4c64.1-68.2,141.2-105.8,217.1-105.8c68.3,0,126.6,41.5,152.2,108.6
		c2,5.4,7.5,7.9,13.4,6.5c2.3-0.5,4.8-2.1,4.4-4.2c-17.5-83.6-81.7-139.7-167.6-146.6c-104.9-8.4-211.6,41-275,131.3
		C143.1,206.4,144.7,212.2,149.3,214.3L149.3,214.3z"/>
</g>
</svg>
