<?xml version="1.0" encoding="UTF-8"?>
<svg id="Layer_1" xmlns="http://www.w3.org/2000/svg" version="1.1" xmlns:xlink="http://www.w3.org/1999/xlink" viewBox="0 0 1866 700">
  <!-- Generator: Adobe Illustrator 30.5.1, SVG Export Plug-In . SVG Version: 2.1.4 Build 3)  -->
  <defs>
    <style>
      .st0 {
        fill: url(#linear-gradient2);
      }

      .st1 {
        fill: url(#linear-gradient10);
      }

      .st2 {
        fill: url(#linear-gradient21);
      }

      .st3 {
        fill: url(#linear-gradient26);
      }

      .st4 {
        fill: url(#linear-gradient1);
      }

      .st5 {
        fill: url(#linear-gradient9);
      }

      .st6 {
        fill: url(#linear-gradient18);
      }

      .st7 {
        fill: url(#linear-gradient23);
      }

      .st8 {
        fill: url(#linear-gradient8);
      }

      .st9 {
        fill: url(#linear-gradient11);
      }

      .st10 {
        fill: url(#radial-gradient);
      }

      .st11 {
        fill: url(#linear-gradient16);
      }

      .st12 {
        fill: url(#linear-gradient24);
      }

      .st13 {
        fill: url(#linear-gradient22);
      }

      .st14 {
        fill: url(#linear-gradient19);
      }

      .st15 {
        fill: url(#linear-gradient12);
      }

      .st16 {
        fill: url(#linear-gradient7);
      }

      .st17 {
        fill: url(#linear-gradient20);
      }

      .st18 {
        fill: url(#linear-gradient4);
      }

      .st19 {
        fill: url(#linear-gradient14);
      }

      .st20 {
        fill: url(#linear-gradient5);
      }

      .st21 {
        fill: url(#linear-gradient3);
      }

      .st22 {
        fill: url(#linear-gradient25);
      }

      .st23 {
        fill: url(#linear-gradient15);
      }

      .st24 {
        fill: url(#linear-gradient17);
      }

      .st25 {
        fill: #ccc;
      }

      .st26 {
        fill: url(#linear-gradient6);
      }

      .st27 {
        fill: url(#linear-gradient13);
      }

      .st28 {
        fill: url(#linear-gradient);
      }
    </style>
    <radialGradient id="radial-gradient" cx="1012.438" cy="1584.393" fx="1012.438" fy="1584.393" r="785.8" gradientTransform="translate(-4263.8876 -4062.8964) scale(5.1264 5.0009)" gradientUnits="userSpaceOnUse">
      <stop offset="0" stop-color="#000"/>
      <stop offset=".2" stop-color="#000013"/>
      <stop offset=".5" stop-color="#000027"/>
      <stop offset=".7" stop-color="#000135"/>
      <stop offset=".9" stop-color="#1e447f"/>
      <stop offset=".9" stop-color="#35639d"/>
      <stop offset=".9" stop-color="#4a83bc"/>
      <stop offset=".9" stop-color="#599ad2"/>
      <stop offset="1" stop-color="#60a5dc"/>
    </radialGradient>
    <linearGradient id="linear-gradient" x1="595.971" y1="2343.108" x2="595.971" y2="2029.508" gradientTransform="translate(-420.5796 -4608.0173) scale(2.2687)" gradientUnits="userSpaceOnUse">
      <stop offset="0" stop-color="#000c3e"/>
      <stop offset=".2" stop-color="#001040"/>
      <stop offset=".3" stop-color="#001746"/>
      <stop offset=".5" stop-color="#001f4f"/>
      <stop offset=".6" stop-color="#10285c"/>
      <stop offset=".8" stop-color="#1a336b"/>
      <stop offset=".8" stop-color="#1d3772"/>
      <stop offset=".9" stop-color="#185790"/>
      <stop offset="1" stop-color="#046ca5"/>
    </linearGradient>
    <linearGradient id="linear-gradient1" x1="666.842" y1="2285.808" x2="666.842" y2="2066.108" gradientTransform="translate(-420.5407 -4598.7514) scale(2.2687)" gradientUnits="userSpaceOnUse">
      <stop offset="0" stop-color="#000c3e"/>
      <stop offset=".2" stop-color="#001040"/>
      <stop offset=".3" stop-color="#001746"/>
      <stop offset=".5" stop-color="#001f4f"/>
      <stop offset=".6" stop-color="#10285c"/>
      <stop offset=".8" stop-color="#1a336b"/>
      <stop offset=".8" stop-color="#1d3772"/>
      <stop offset=".9" stop-color="#185790"/>
      <stop offset="1" stop-color="#046ca5"/>
    </linearGradient>
    <linearGradient id="linear-gradient2" x1="759.691" y1="2286.008" x2="759.691" y2="2065.708" gradientTransform="translate(-420.5407 -4598.7514) scale(2.2687)" gradientUnits="userSpaceOnUse">
      <stop offset="0" stop-color="#000c3e"/>
      <stop offset=".2" stop-color="#001040"/>
      <stop offset=".3" stop-color="#001746"/>
      <stop offset=".5" stop-color="#001f4f"/>
      <stop offset=".6" stop-color="#10285c"/>
      <stop offset=".8" stop-color="#1a336b"/>
      <stop offset=".8" stop-color="#1d3772"/>
      <stop offset=".9" stop-color="#185790"/>
      <stop offset="1" stop-color="#046ca5"/>
    </linearGradient>
    <linearGradient id="linear-gradient3" x1="773.17" y1="2285.808" x2="773.17" y2="2066.108" gradientTransform="translate(-420.5407 -4598.7514) scale(2.2687)" gradientUnits="userSpaceOnUse">
      <stop offset="0" stop-color="#000c3e"/>
      <stop offset=".2" stop-color="#001040"/>
      <stop offset=".3" stop-color="#001746"/>
      <stop offset=".5" stop-color="#001f4f"/>
      <stop offset=".6" stop-color="#10285c"/>
      <stop offset=".8" stop-color="#1a336b"/>
      <stop offset=".8" stop-color="#1d3772"/>
      <stop offset=".9" stop-color="#185790"/>
      <stop offset="1" stop-color="#046ca5"/>
    </linearGradient>
    <linearGradient id="linear-gradient4" x1="651.889" y1="2285.808" x2="651.889" y2="2066.108" gradientTransform="translate(-420.5407 -4598.7514) scale(2.2687)" gradientUnits="userSpaceOnUse">
      <stop offset="0" stop-color="#000c3e"/>
      <stop offset=".2" stop-color="#001040"/>
      <stop offset=".3" stop-color="#001746"/>
      <stop offset=".5" stop-color="#001f4f"/>
      <stop offset=".6" stop-color="#10285c"/>
      <stop offset=".8" stop-color="#1a336b"/>
      <stop offset=".8" stop-color="#1d3772"/>
      <stop offset=".9" stop-color="#185790"/>
      <stop offset="1" stop-color="#046ca5"/>
    </linearGradient>
    <linearGradient id="linear-gradient5" x1="838.384" y1="2136.18" x2="838.384" y2="2136.18" gradientTransform="translate(-420.5407 -4598.7514) scale(2.2687)" gradientUnits="userSpaceOnUse">
      <stop offset="0" stop-color="#000c3e"/>
      <stop offset=".2" stop-color="#001040"/>
      <stop offset=".3" stop-color="#001746"/>
      <stop offset=".5" stop-color="#001f4f"/>
      <stop offset=".6" stop-color="#10285c"/>
      <stop offset=".8" stop-color="#1a336b"/>
      <stop offset=".8" stop-color="#1d3772"/>
      <stop offset=".9" stop-color="#185790"/>
      <stop offset="1" stop-color="#046ca5"/>
    </linearGradient>
    <linearGradient id="linear-gradient6" x1="739.009" y1="2285.908" x2="739.009" y2="2066.008" gradientTransform="translate(-420.5407 -4598.7514) scale(2.2687)" gradientUnits="userSpaceOnUse">
      <stop offset="0" stop-color="#000c3e"/>
      <stop offset=".2" stop-color="#001040"/>
      <stop offset=".3" stop-color="#001746"/>
      <stop offset=".5" stop-color="#001f4f"/>
      <stop offset=".6" stop-color="#10285c"/>
      <stop offset=".8" stop-color="#1a336b"/>
      <stop offset=".8" stop-color="#1d3772"/>
      <stop offset=".9" stop-color="#185790"/>
      <stop offset="1" stop-color="#046ca5"/>
    </linearGradient>
    <linearGradient id="linear-gradient7" x1="548.977" y1="2285.808" x2="548.977" y2="2066.108" gradientTransform="translate(-420.5407 -4598.7514) scale(2.2687)" gradientUnits="userSpaceOnUse">
      <stop offset="0" stop-color="#000c3e"/>
      <stop offset=".2" stop-color="#001040"/>
      <stop offset=".3" stop-color="#001746"/>
      <stop offset=".5" stop-color="#001f4f"/>
      <stop offset=".6" stop-color="#10285c"/>
      <stop offset=".8" stop-color="#1a336b"/>
      <stop offset=".8" stop-color="#1d3772"/>
      <stop offset=".9" stop-color="#185790"/>
      <stop offset="1" stop-color="#046ca5"/>
    </linearGradient>
    <linearGradient id="linear-gradient8" x1="643.867" y1="2285.908" x2="643.867" y2="2066.008" gradientTransform="translate(-420.5407 -4598.7514) scale(2.2687)" gradientUnits="userSpaceOnUse">
      <stop offset="0" stop-color="#000c3e"/>
      <stop offset=".2" stop-color="#001040"/>
      <stop offset=".3" stop-color="#001746"/>
      <stop offset=".5" stop-color="#001f4f"/>
      <stop offset=".6" stop-color="#10285c"/>
      <stop offset=".8" stop-color="#1a336b"/>
      <stop offset=".8" stop-color="#1d3772"/>
      <stop offset=".9" stop-color="#185790"/>
      <stop offset="1" stop-color="#046ca5"/>
    </linearGradient>
    <linearGradient id="linear-gradient9" x1="760.044" y1="2285.908" x2="760.044" y2="2066.008" gradientTransform="translate(-420.5407 -4598.7514) scale(2.2687)" gradientUnits="userSpaceOnUse">
      <stop offset="0" stop-color="#000c3e"/>
      <stop offset=".2" stop-color="#001040"/>
      <stop offset=".3" stop-color="#001746"/>
      <stop offset=".5" stop-color="#001f4f"/>
      <stop offset=".6" stop-color="#10285c"/>
      <stop offset=".8" stop-color="#1a336b"/>
      <stop offset=".8" stop-color="#1d3772"/>
      <stop offset=".9" stop-color="#185790"/>
      <stop offset="1" stop-color="#046ca5"/>
    </linearGradient>
    <linearGradient id="linear-gradient10" x1="685.587" y1="2285.908" x2="685.587" y2="2065.908" gradientTransform="translate(-420.5407 -4598.7514) scale(2.2687)" gradientUnits="userSpaceOnUse">
      <stop offset="0" stop-color="#000c3e"/>
      <stop offset=".2" stop-color="#001040"/>
      <stop offset=".3" stop-color="#001746"/>
      <stop offset=".5" stop-color="#001f4f"/>
      <stop offset=".6" stop-color="#10285c"/>
      <stop offset=".8" stop-color="#1a336b"/>
      <stop offset=".8" stop-color="#1d3772"/>
      <stop offset=".9" stop-color="#185790"/>
      <stop offset="1" stop-color="#046ca5"/>
    </linearGradient>
    <linearGradient id="linear-gradient11" x1="805.364" y1="2285.808" x2="805.364" y2="2066.008" gradientTransform="translate(-420.5407 -4598.7514) scale(2.2687)" gradientUnits="userSpaceOnUse">
      <stop offset="0" stop-color="#000c3e"/>
      <stop offset=".2" stop-color="#001040"/>
      <stop offset=".3" stop-color="#001746"/>
      <stop offset=".5" stop-color="#001f4f"/>
      <stop offset=".6" stop-color="#10285c"/>
      <stop offset=".8" stop-color="#1a336b"/>
      <stop offset=".8" stop-color="#1d3772"/>
      <stop offset=".9" stop-color="#185790"/>
      <stop offset="1" stop-color="#046ca5"/>
    </linearGradient>
    <linearGradient id="linear-gradient12" x1="593.243" y1="2285.808" x2="593.243" y2="2066.108" gradientTransform="translate(-420.5407 -4598.7514) scale(2.2687)" gradientUnits="userSpaceOnUse">
      <stop offset="0" stop-color="#000c3e"/>
      <stop offset=".2" stop-color="#001040"/>
      <stop offset=".3" stop-color="#001746"/>
      <stop offset=".5" stop-color="#001f4f"/>
      <stop offset=".6" stop-color="#10285c"/>
      <stop offset=".8" stop-color="#1a336b"/>
      <stop offset=".8" stop-color="#1d3772"/>
      <stop offset=".9" stop-color="#185790"/>
      <stop offset="1" stop-color="#046ca5"/>
    </linearGradient>
    <linearGradient id="linear-gradient13" x1="558.941" y1="2285.808" x2="558.941" y2="2067.508" gradientTransform="translate(-420.5407 -4598.7514) scale(2.2687)" gradientUnits="userSpaceOnUse">
      <stop offset="0" stop-color="#000c3e"/>
      <stop offset=".2" stop-color="#001040"/>
      <stop offset=".3" stop-color="#001746"/>
      <stop offset=".5" stop-color="#001f4f"/>
      <stop offset=".6" stop-color="#10285c"/>
      <stop offset=".8" stop-color="#1a336b"/>
      <stop offset=".8" stop-color="#1d3772"/>
      <stop offset=".9" stop-color="#185790"/>
      <stop offset="1" stop-color="#046ca5"/>
    </linearGradient>
    <linearGradient id="linear-gradient14" x1="393.247" y1="2285.808" x2="393.247" y2="2066.108" gradientTransform="translate(-420.5407 -4598.7514) scale(2.2687)" gradientUnits="userSpaceOnUse">
      <stop offset="0" stop-color="#000c3e"/>
      <stop offset=".2" stop-color="#001040"/>
      <stop offset=".3" stop-color="#001746"/>
      <stop offset=".5" stop-color="#001f4f"/>
      <stop offset=".6" stop-color="#10285c"/>
      <stop offset=".8" stop-color="#1a336b"/>
      <stop offset=".8" stop-color="#1d3772"/>
      <stop offset=".9" stop-color="#185790"/>
      <stop offset="1" stop-color="#046ca5"/>
    </linearGradient>
    <linearGradient id="linear-gradient15" x1="491.569" y1="2285.808" x2="491.569" y2="2066.108" gradientTransform="translate(-420.5407 -4598.7514) scale(2.2687)" gradientUnits="userSpaceOnUse">
      <stop offset="0" stop-color="#000c3e"/>
      <stop offset=".2" stop-color="#001040"/>
      <stop offset=".3" stop-color="#001746"/>
      <stop offset=".5" stop-color="#001f4f"/>
      <stop offset=".6" stop-color="#10285c"/>
      <stop offset=".8" stop-color="#1a336b"/>
      <stop offset=".8" stop-color="#1d3772"/>
      <stop offset=".9" stop-color="#185790"/>
      <stop offset="1" stop-color="#046ca5"/>
    </linearGradient>
    <linearGradient id="linear-gradient16" x1="462.921" y1="2285.808" x2="462.921" y2="2066.008" gradientTransform="translate(-420.5407 -4598.7514) scale(2.2687)" gradientUnits="userSpaceOnUse">
      <stop offset="0" stop-color="#000c3e"/>
      <stop offset=".2" stop-color="#001040"/>
      <stop offset=".3" stop-color="#001746"/>
      <stop offset=".5" stop-color="#001f4f"/>
      <stop offset=".6" stop-color="#10285c"/>
      <stop offset=".8" stop-color="#1a336b"/>
      <stop offset=".8" stop-color="#1d3772"/>
      <stop offset=".9" stop-color="#185790"/>
      <stop offset="1" stop-color="#046ca5"/>
    </linearGradient>
    <linearGradient id="linear-gradient17" x1="468.16" y1="2285.908" x2="468.16" y2="2066.008" gradientTransform="translate(-420.5407 -4598.7514) scale(2.2687)" gradientUnits="userSpaceOnUse">
      <stop offset="0" stop-color="#000c3e"/>
      <stop offset=".2" stop-color="#001040"/>
      <stop offset=".3" stop-color="#001746"/>
      <stop offset=".5" stop-color="#001f4f"/>
      <stop offset=".6" stop-color="#10285c"/>
      <stop offset=".8" stop-color="#1a336b"/>
      <stop offset=".8" stop-color="#1d3772"/>
      <stop offset=".9" stop-color="#185790"/>
      <stop offset="1" stop-color="#046ca5"/>
    </linearGradient>
    <linearGradient id="linear-gradient18" x1="716.111" y1="2283.008" x2="716.111" y2="2066.408" gradientTransform="translate(-420.5407 -4598.7514) scale(2.2687)" gradientUnits="userSpaceOnUse">
      <stop offset="0" stop-color="#000c3e"/>
      <stop offset=".2" stop-color="#001040"/>
      <stop offset=".3" stop-color="#001746"/>
      <stop offset=".5" stop-color="#001f4f"/>
      <stop offset=".6" stop-color="#10285c"/>
      <stop offset=".8" stop-color="#1a336b"/>
      <stop offset=".8" stop-color="#1d3772"/>
      <stop offset=".9" stop-color="#185790"/>
      <stop offset="1" stop-color="#046ca5"/>
    </linearGradient>
    <linearGradient id="linear-gradient19" x1="617.652" y1="2285.808" x2="617.652" y2="2066.108" gradientTransform="translate(-420.5407 -4598.7514) scale(2.2687)" gradientUnits="userSpaceOnUse">
      <stop offset="0" stop-color="#000c3e"/>
      <stop offset=".2" stop-color="#001040"/>
      <stop offset=".3" stop-color="#001746"/>
      <stop offset=".5" stop-color="#001f4f"/>
      <stop offset=".6" stop-color="#10285c"/>
      <stop offset=".8" stop-color="#1a336b"/>
      <stop offset=".8" stop-color="#1d3772"/>
      <stop offset=".9" stop-color="#185790"/>
      <stop offset="1" stop-color="#046ca5"/>
    </linearGradient>
    <linearGradient id="linear-gradient20" x1="560.597" y1="2285.908" x2="560.597" y2="2066.008" gradientTransform="translate(-420.5407 -4598.7514) scale(2.2687)" gradientUnits="userSpaceOnUse">
      <stop offset="0" stop-color="#000c3e"/>
      <stop offset=".2" stop-color="#001040"/>
      <stop offset=".3" stop-color="#001746"/>
      <stop offset=".5" stop-color="#001f4f"/>
      <stop offset=".6" stop-color="#10285c"/>
      <stop offset=".8" stop-color="#1a336b"/>
      <stop offset=".8" stop-color="#1d3772"/>
      <stop offset=".9" stop-color="#185790"/>
      <stop offset="1" stop-color="#046ca5"/>
    </linearGradient>
    <linearGradient id="linear-gradient21" x1="567.654" y1="2285.808" x2="567.654" y2="2066.008" gradientTransform="translate(-420.5407 -4598.7514) scale(2.2687)" gradientUnits="userSpaceOnUse">
      <stop offset="0" stop-color="#000c3e"/>
      <stop offset=".2" stop-color="#001040"/>
      <stop offset=".3" stop-color="#001746"/>
      <stop offset=".5" stop-color="#001f4f"/>
      <stop offset=".6" stop-color="#10285c"/>
      <stop offset=".8" stop-color="#1a336b"/>
      <stop offset=".8" stop-color="#1d3772"/>
      <stop offset=".9" stop-color="#185790"/>
      <stop offset="1" stop-color="#046ca5"/>
    </linearGradient>
    <linearGradient id="linear-gradient22" x1="447.234" y1="2285.908" x2="447.234" y2="2066.008" gradientTransform="translate(-420.5407 -4598.7514) scale(2.2687)" gradientUnits="userSpaceOnUse">
      <stop offset="0" stop-color="#000c3e"/>
      <stop offset=".2" stop-color="#001040"/>
      <stop offset=".3" stop-color="#001746"/>
      <stop offset=".5" stop-color="#001f4f"/>
      <stop offset=".6" stop-color="#10285c"/>
      <stop offset=".8" stop-color="#1a336b"/>
      <stop offset=".8" stop-color="#1d3772"/>
      <stop offset=".9" stop-color="#185790"/>
      <stop offset="1" stop-color="#046ca5"/>
    </linearGradient>
    <linearGradient id="linear-gradient23" x1="658.817" y1="201.673" x2="592.217" y2="-46.727" gradientTransform="translate(-1416.2575 216.0004) scale(3.2409)" gradientUnits="userSpaceOnUse">
      <stop offset="0" stop-color="#a6a6a6"/>
      <stop offset=".3" stop-color="#d9d9d9"/>
      <stop offset=".7" stop-color="#d9d9d9"/>
      <stop offset="1" stop-color="#a6a6a6"/>
    </linearGradient>
    <linearGradient id="linear-gradient24" x1="724.847" y1="-69.183" x2="724.847" y2="151.417" gradientTransform="translate(-1416.2575 216.0004) scale(3.2409)" gradientUnits="userSpaceOnUse">
      <stop offset="0" stop-color="#fff"/>
      <stop offset=".6" stop-color="#fdfdfd"/>
      <stop offset=".7" stop-color="#f9f9f9"/>
      <stop offset=".8" stop-color="#ccc"/>
      <stop offset="1" stop-color="#b3b3b3"/>
    </linearGradient>
    <linearGradient id="linear-gradient25" x1="769.988" y1="1.317" x2="769.988" y2="110.717" gradientTransform="translate(-1416.2575 216.0004) scale(3.2409)" gradientUnits="userSpaceOnUse">
      <stop offset="0" stop-color="#fff"/>
      <stop offset=".4" stop-color="#fdfdfd"/>
      <stop offset=".6" stop-color="#f6f6f6"/>
      <stop offset=".7" stop-color="#ececec"/>
      <stop offset=".8" stop-color="#e6e6e6"/>
      <stop offset="1" stop-color="#ccc"/>
    </linearGradient>
    <linearGradient id="linear-gradient26" x1="682.927" y1="-40.283" x2="682.927" y2="111.417" gradientTransform="translate(-1416.2575 216.0004) scale(3.2409)" gradientUnits="userSpaceOnUse">
      <stop offset="0" stop-color="#fff"/>
      <stop offset=".4" stop-color="#fdfdfd"/>
      <stop offset=".6" stop-color="#f6f6f6"/>
      <stop offset=".7" stop-color="#ececec"/>
      <stop offset=".8" stop-color="#e6e6e6"/>
      <stop offset="1" stop-color="#ccc"/>
    </linearGradient>
  </defs>
  <path class="st25" d="M933,0C415.1,0,0,155.3,0,350s418.5,350,933,350,933-157,933-350S1447.5,0,933,0ZM1860.3,323c.3,1.7.6,3.4.9,5.1-.2-1.7-.6-3.4-.9-5.1Z"/>
  <path class="st10" d="M933,14C425.4,14,14.3,164.1,14.3,349.8s411.1,335.8,918.7,335.8,918.7-150.1,918.7-335.8S1440.6,14,933,14h0Z"/>
  <path class="st28" d="M87.7,362.7c0-153.7,380.3-278.3,849.5-278.3s787.9,105.4,842.3,242c-36.2-143.6-401.3-256.5-846.5-256.5S83.5,195.2,83.5,349.9s2.5,25,7.4,37.1c-2.1-7.9-3.2-16.1-3.2-24.3Z"/>
  <path class="st4" d="M1097,379.6c-19.7,20.6-21.2,47.1-8.3,59.1,4.6,4.3,9.9,6.2,15.6,6.6-8.4-10.7-12.4-31.6-1.9-48.2-1.9-4.9-2.3-10.4-1.2-15.9.4-1.9-2.1-3.7-4.2-1.6Z"/>
  <path class="st0" d="M1300.5,424.1c-.1-.3-.2-.6-.2-.9v.2c.3,3.1,1.1,8.9,1.8,13.3,1-2,2-4,3.1-6.2.8-1.7.4-2.2-.3-2.5-2-.7-4.1-2.3-4.4-3.9Z"/>
  <path class="st21" d="M1335.8,377.1c.3,3.3,2.8,3.7,4.9.8.5-.8,1.2-1.8,1.9-2.9-.6-.8-1.2-1.6-1.8-2.3-2.9-3.4-9.7-10.8-16.3-16.6,6.6,6.3,10.6,14,11.4,21h-.1Z"/>
  <path class="st18" d="M1062.8,374.8c.9-1.3,1.8-2.5,2.6-3.6-3.9-11.9-9.8-23.6-14-28,5.3,7.2,7.8,17.5,7.4,30.7,0,3.4,2.4,3.2,4,.9h0Z"/>
  <path class="st20" d="M1481.5,247.6h0Z"/>
  <path class="st26" d="M1214.6,501.7c2.2,1.2,4.6,2,7,2.4-.8-2.9-1.2-6-1.3-9-.3-23.1,6.9-46.2,25.3-68.8,22.3-27.5,45.7-41.2,62-33.6-.8-6-4-11.3-10.9-14.5-16.3-7.8-41.1,6.5-63.5,34.1-18.4,22.6-28.3,45.6-28.7,68-.1,8,2.9,17.8,9.9,21.5h0l.2-.1Z"/>
  <path class="st16" d="M869.1,382.4c2.9-1.3,3.3-2.9,2.7-5.5-1-4.4-4-15.3-4.9-17.9h0c.7,2.4.1,4.2-2.8,5.3-25,9.5-50,24.2-67.3,47.4-19.6,26.3-24.9,58-11.8,76.3,3.1,4.3,6.8,7.4,11,9.5-7.1-21.8-1.9-51.1,14.7-73.6,17.2-23.2,36.4-32,58.5-41.6h0l-.1.1Z"/>
  <path class="st8" d="M1147.5,463c-5.9,4.3-13.7,9-23.4,12.5-11.9,4.4-17.4,6.1-28.4,6-13.8,0-26.3-6-35.1-19.7-4.9-7.4-6.9-18.7-7.4-26.9,0-.9-1.3-2.5-2.6-.4-23.3,35.5-45,69.9-68.1,106.1-1.2,1.7-2.3,2.8-4.6,2.9h-45.6c-1.7,0-2.8-.7-3.2-1.9,1.2,5.5,3.2,15.5,3.8,17.8.4,1.6,1.6,2.4,3.3,2.4h51.7c2.1-.1,3.5-1.3,4.6-2.9,21-32.9,43.4-68.5,64.8-101.5,4.7,16.6,7.1,24.3,15.9,32.1,8.9,8,17.1,10,29.2,10.2,11,.1,21.9-4.3,34.7-9.7,4.6-1.9,8.8-4.3,12.5-6.7,0-6.1.6-12.2,1.7-18.1,0-.6-.5-4.7-4-2.2h.2Z"/>
  <path class="st5" d="M1452,450.5c0,.9-.4,1.6-.8,2.2-22.2,27.1-46.8,52.8-70.3,70.9-36.6,28.3-73,35.5-91.1,17.4-6.7-6.8-10.4-16.4-10.9-24.6-.2-4.4-2.5-4.6-4.6-2.6-21.6,21.3-59,45-93.1,28.2-17.6-8.7-26.8-25-30.1-43,0,.2,0,.4.1.6,2.2,12.8,4.9,31.1,10.9,42.4,3.9,7.5,12.6,15.9,17.9,18.5,30.3,14.9,73.5-2,101.2-28.7.3-.3.4-.4.8-.8,1.3,4.8,2.8,10.6,3,11.4,1.9,6.2,4.9,11.8,7.5,14.8,19,21.5,59.3,11.7,101.2-20.8,23.4-18.1,40.8-36.3,62.1-61.1.8-1,.8-2.6.3-4.8-1.2-5.4-3.2-15.2-4.2-20.1h0l.1.1Z"/>
  <path class="st1" d="M1147.1,426.3c11.2-6.1,21.1-19,19.9-39.9-.6-10.4-3.7-21.1-8.5-29.8,3.4,6.6,4.7,14.1,3.5,21.4-2.1,13.5-9.4,25.4-21.9,31.6-10.5,5.2-22.9,4.3-31.5-3.4-2.6-2.4-4.6-5.3-6-8.5,2.2,10.2,4.1,17.7,6.8,21.7,8.2,12.2,22.2,15.3,37.7,6.9h0Z"/>
  <path class="st9" d="M1486.6,272.2c-.4-2-4.7-22.7-5.1-24.6.1.5,0,1.2-.4,1.9-7.1,12.3-143.7,220.4-152.4,241.9-2.7,6.8-3.1,12-.3,15.8,2.8,3.8,6.9,5.2,11.6,5.2.4-2.6,1.5-5.6,2.7-8.7,8.6-21.6,136.6-216.1,143.6-228.5.6-1.1.4-2.2.2-3h.1Z"/>
  <path class="st15" d="M913.9,346.5c.4.4.7.9,1.1,1.3,8.2,12.2,12.7,29.5,13.1,47.3.5,3.8,2.1,3.9,3.9,1.9,1.7-1.7,3.3-3.4,4.9-5.2-2.4-9.6-6.1-18.2-10-26.4-1.4-3-7.7-13.8-13.1-18.8h0l.1-.1Z"/>
  <path class="st27" d="M989.1,406.8c9.6-8.2,20.1-13.5,26.7-11,3.9-10.2,2.1-15.8-2.1-18.5-6.4-4.2-19.2,2.1-30,10.3-29.5,22.3-54.2,57.1-66.8,72.7-7.4,9.2-14.4,22.7-33.7,43.6-30.4,33-70.7,52-109.5,38.9-21.2-7.1-36.6-24.2-42.4-45.1-1.2-4.1-3.4-5.2-5.6-2.5-6.3,7.8-19.1,19.3-29.8,26.6-1.2.8-4.1,2.6-6.6,1.3-2.2-1-10.2-12.3-11.8-15.5-.2-.3-.3-.7-.4-1.1h0c2.8,14,3.1,15.6,6.9,22,4.3,7.1,8.5,12.1,9.4,12.5,2.5,1.3,5.1.1,6.3-.6,8.3-4.3,24.6-16.8,31.5-25.5,2.1-2,4.1-.7,4.8,1.5,2.9,9.3,7.2,16.4,12,24,5.2,8.4,15.7,17.2,29.3,20.9,17.6,4.9,36.6,5.8,61.5-3.7,20-7.7,41-23.3,57.1-40.8,19.4-21,26.3-34.5,33.7-43.7,12.5-15.5,32.1-43,59.4-66.4h0l.1.1Z"/>
  <path class="st19" d="M452.6,461.1c-3.9-15.4.3-32,6.5-44.3,9.8-19.8,23.6-29.3,37.2-37.8,5.8-3.7,8.4-7.3,5-16.9-1-2.7-1.5-7.7-2.6-12.1.3,4.3-1.8,8-5.6,9.9-16.6,8.5-36.5,23-46.4,42.7-8,16.2-9.6,35.6,2.6,54.2,1,1.5,2.1,3,3.3,4.4h0v-.1Z"/>
  <path class="st23" d="M568.6,253.5c-3.4-23.5,14.2-61.8,60.2-77,60.3-19.9,127.4-7.3,181.4,4.2,7.5-4.7,14.2-8,20.8-11.6,3.3-1.7-.4-3.8-1.4-3.8-69.7-13.1-142.1-30-211.3-4.4-47.9,17.9-68.9,55.9-58.8,81.3,2,4.8,5.1,8.6,9.1,11.3h0Z"/>
  <path class="st11" d="M752.7,327.8c22.9-2.9,43.5-4.1,63.8-6.1,6-.6,10.6-1.1,12.9,1.1,7.3,7.3,15.8,14,21.5,17.3,3.7,0,6.9.9,9.1,2.8,2.4-.3,4.5-1.6,5.9-3,2.6-2.6,2.7-5.6,2.3-8.2-.9-5-2.2-14.9-3.9-17.7,1.1,2.2.4,5.3-1.8,7.7-1.6,1.8-4.1,3.6-7.3,3.5-2.6,0-4.2-.9-7.5-2.7-6.8-3.7-15.3-9.7-20.9-16.9-1.9-2.4-2.9-2.5-7.7-2.2-21.7,1.3-55.5,4.5-78.5,7.4-5.5.7-6.4,1.7-7.5,3.7-36.5,60.3-75.6,125.3-118.4,168.8-46,46.7-84.2,59-124.7,59.3-46.8.3-88.5-26.2-99-72.9,5.6,26,22.4,57.4,41.8,71.1,19.7,13.9,39.2,18.5,61.9,18.9,46.1.8,88.2-18.2,132.9-63.6,42.9-43.5,80-104.3,116.6-164.6,1.2-2.1,2.5-3.1,8.7-3.9h0l-.2.2Z"/>
  <path class="st24" d="M677.5,320c-20.7.6-38.8,6.8-56.4,19.9-5.1,3.7-12.3,3.2-15.5-1.7-1-1.6-1.6-3.4-1.6-5.3-.5,7.8,2.7,19.3,5.2,23.2,2.8,4.3,10.6,6.4,16.8,1.8,14-10.3,26.6-16.3,40.7-19,3.6-5,7.6-10.5,12.1-16.7.4-.5.5-1.2.3-1.5-.3-.6-.7-.7-1.6-.8v.1Z"/>
  <path class="st6" d="M1203.7,148c.3.4.6.9.8,1.4-.2-.5-.5-.9-.8-1.4Z"/>
  <path class="st14" d="M752.5,285.6c-.8,1-.4,1.9,1.1,1.8,6.5-.3,12.8-.6,19.1-1,22.5-35.3,46.6-55.5,83.5-82.8,2.7-2.1,5.5-3.5,4.6-11.4,74,16.4,130.3,43.7,225.8,43.9,28.5,0,68.7-9.4,90.3-22.5,24.9-15,31.5-25.9,32.4-37.6.3-3.6-.7-9-1.3-11.8-.8-3.9-1.4-8.9-2.5-12.7.4,1.5.6,3.3.4,5.1-.8,13.4-11.1,26.2-36.6,40.1-29,15.9-59.3,20.7-90.9,21-76.5.6-147.8-29.2-221.6-45.2.1,3.2.9,7.1-1.8,9.1-40.9,30.2-77.8,60.8-102.5,103.8v.2Z"/>
  <path class="st17" d="M852.1,264.9c3.1-2.7,6.9-4,10.1-3.4,2.8-5.6,3.6-12.3.2-15.3-3.3-2.9-8.6-2.4-12.8.7-.9.9-1.9,1.8-3,2.7-7.3,7.6-9.5,17.6-8.4,25.2.6,3.1,1.8,3.7,3.2,3.4,1.4-.3,2.9-.8,4.2-1.3.5-4.2,2.3-8.2,6.5-11.9h0v-.1Z"/>
  <path class="st2" d="M882.9,290c3.5-7.7,5.4-13.8,3.9-27.1-1.1-9.3-3-17.7-5.5-22.1,4.8,9.7,2.9,22.3-2.3,32.3-7,13.4-18.6,20.6-29.7,24.1,0,0-2.3.5-2,2.6.3,2.4,8.2,7.4,13.1,10.9.7-.2,1.8-.6,1.8-.6,5.7-2.2,15.2-8,20.7-20.1h0Z"/>
  <path class="st13" d="M543,315.5c10.2,6.4,22.8,9.9,37.2,9.4,49.1-1.7,86.3-42.1,98.6-76.3,3.3-9.2.7-19.1-.8-25.8-.6-2.6-1.5-8.4-3.3-12.5h0c1.4,3.4,1.4,8.4-1.3,14.8-20.2,47.6-58.9,85.4-106,87-28.4.9-49.7-13.6-59.6-35.1,7.3,16.1,22.2,30.4,35.3,38.6h0l-.1-.1Z"/>
  <path class="st7" d="M60.1,231.8C194.4,96.3,544.8,5.1,931.4,3.5c52.4-.2,104.9,1.2,157.2,4.3-51.8-3.3-103.7-4.9-155.6-4.9C417.2,2.9,2.8,157.6,2.8,350s1.1,18.2,2.9,27.1c-1.4-7.7-2.2-15.5-2.3-23.3-.2-41.5,18.4-83.4,56.6-122h.1Z"/>
  <path class="st12" d="M932.9,656.4c-486.2,0-880.4-137.2-880.4-306.5S446.7,43.4,932.9,43.4s880.4,137.2,880.4,306.6-394.2,306.5-880.4,306.5h0v-.1ZM932.9,69.9c-469.2,0-849.5,125.3-849.5,280s380.3,280,849.5,280,849.4-125.4,849.4-280S1402.1,69.9,932.9,69.9Z"/>
  <path class="st22" d="M1481.1,249.6c1.2-2.1,0-3.7-2.8-3.7h-47.1c-14.6,0-5.3.4-6.9,3.7-5.4,10.4-71.3,109.2-83.6,128.3-2.1,2.9-4.6,2.5-4.9-.8-1.2-11.4-11.1-24.5-26.6-30.8-11.8-4.8-23.4-5.7-35.4-4.1-21.7,2.9-41,14.4-58,27.2-25.6,19.5-47.7,44.7-76.2,63.3-15.6,10.1-36.9,19-51.1,5.8-12.9-12-11.4-38.5,8.3-59.1,2.1-2.2,4.6-.4,4.2,1.6-1.9,9.3.4,18.5,7.5,25,8.6,7.7,20.9,8.6,31.5,3.4,12.4-6.2,19.8-18.1,21.9-31.6,3.3-21-12.8-39.5-33-41-16.4-1.2-32.1,4.6-47.5,17.2-7.7,6.4-12.1,11.1-18.7,20.5-1.6,2.3-4.1,2.6-4-.9.8-26.9-10.3-42-32.5-42.5-17.2-.4-35.6,8.9-50,20.4-15.7,12.6-29.5,29.4-44.2,45.1-1.8,1.9-3.4,1.8-3.9-1.9-.4-17.8-4.9-35-13.1-47.3-2.9-4.3-9-6.4-14.2-3.5-2.4,1.3-10.7,5.1-16.7,10-3,2.5-4.1,6-2.8,10.6,8,26.6,6.2,56.8-4.6,82.3-9.9,23.4-29.1,44.5-51.7,51.6-14.9,4.7-30.4,2.4-40-10.8-13.2-18.2-7.8-49.9,11.8-76.3,17.3-23.2,42.4-37.9,67.3-47.4,2.9-1.1,3.5-3,2.7-5.5-1.4-4.1-3.5-9.7-4.4-12.3-2.3-6.1-8.7-7.1-16.5-6.2-18.1,2.1-34.5,8.3-50.7,17-42.3,22.7-63.6,66.6-72.9,90.1-4.5,11.3-8.3,18.3-13.3,24.6-6.7,8.4-15.1,16-30.4,29.5-1.4,1.2-2.4,3.8-1.3,6.2,1.6,3.2,9.5,14.5,11.8,15.5,2.5,1.2,5.4-.5,6.6-1.3,10.7-7.3,23.6-18.8,29.8-26.6,2.2-2.7,4.5-1.6,5.6,2.5,5.9,20.9,21.2,38,42.4,45.1,38.8,13.1,79.1-5.9,109.5-38.9,19.3-21,26.3-34.5,33.7-43.6,12.5-15.6,37.3-50.4,66.8-72.7,10.8-8.2,23.6-14.5,30-10.3,5.2,3.3,6.8,11.1-1.5,26.2-30.1,54.9-74.3,119.4-82.4,135.1-1.5,2.7-.2,4.8,2.6,4.8h45.6c2.4-.1,3.4-1.2,4.6-2.9,23.1-36.1,44.8-70.5,68.1-106.1,1.3-2.1,2.5-.5,2.6.4.5,8.2,2.5,19.5,7.4,26.9,8.8,13.7,21.3,19.6,35.1,19.7,11,.1,16.6-1.5,28.4-6,9.7-3.6,17.4-8.3,23.4-12.5,3.5-2.4,4.1,1.6,4,2.2-5.3,28.7,1.3,62.7,29.8,76.8,34.1,16.8,71.6-6.8,93.1-28.2,2.1-2.1,4.4-1.8,4.6,2.6.5,8.1,4.1,17.8,10.9,24.6,18.1,18.1,54.5,11,91.1-17.4,23.5-18.1,48.1-43.8,70.3-70.9.8-1,1.4-2.7-.2-4.4-3.4-3.5-8.3-7.6-11.6-10.7-1.5-1.3-3.8-.9-5.1,0-22.8,21.6-43.2,46.3-72.8,66.8-10,7-25.9,12.6-33,2.9-2.8-3.8-2.5-9,.3-15.8,8.6-21.5,145.3-229.7,152.4-241.9h0l-.1.4ZM1300.5,424.1c.3,1.6,2.4,3.1,4.4,3.9.7.3,1.1.8.3,2.5-5.8,12.5-11.2,19.6-18.4,30.5-6.7,10-14.2,17.8-23.4,25.3-13.8,11.4-32.9,23.8-48.7,15.5-7-3.7-10.1-13.5-9.9-21.5.4-22.4,10.3-45.4,28.7-68,22.4-27.6,47.2-41.9,63.5-34.1,16.8,8,11.5,27.5,3.9,42.8-.6,1.2-.6,2.2-.3,3.2h0l-.1-.1Z"/>
  <path class="st3" d="M489.9,542.6c-51,.4-95.8-31.1-101-85.7-2.9-30.2,5.7-57.2,22.8-79.3,15.2-19.8,40.8-36.2,62.6-40.2,7.1-1.3,16.6-.5,20.5,4.2,6.2,7.2,4.4,15-1.8,18.2-16.6,8.5-36.5,23-46.4,42.7-8,16.2-9.6,35.6,2.6,54.2,20.5,30.9,77.5,31.8,130.5-17.5,13.1-12.1,24.9-23.6,36.8-37.4,23.4-26.7,31.1-36.5,62.2-79.5.4-.5.5-1.2.3-1.5-.3-.6-.7-.7-1.6-.8-20.7.6-38.8,6.8-56.4,19.9-5.1,3.7-12.3,3.2-15.5-1.7-3.5-5.5-1-12.6,4.8-16.7,28.3-19.7,59.1-23.2,90.6-28.5,0,0,2.2.1,4-2.3,12.9-16.6,22.7-31.6,36.5-48.4,13.9-17,31.9-32.7,45.6-44.5,19.1-16.5,31.4-22,43.9-28.8,3.3-1.7-.4-3.8-1.4-3.8-69.7-13.1-142.1-30-211.3-4.4-47.9,17.9-68.9,55.9-58.8,81.3,7.2,18,30.9,20.9,53,10.1,19.4-9.6,35.8-24.2,47.5-42.3,6.8-10.4,21-2.9,13.3,15.2-20.2,47.6-58.9,85.4-106,87-40.1,1.3-66-28.2-65.9-64.6.1-71.8,80.1-119.1,164.1-126.2,101.1-8.4,196.9,18.6,297.3,30.8,76.9,9.3,150.7,9.5,228-8.3,9.1-2,15.6,3.9,15,13.1-.8,13.4-11.1,26.2-36.6,40.1-29,15.9-59.3,20.7-90.9,21-76.5.6-147.8-29.2-221.6-45.2.1,3.2.9,7.1-1.8,9.1-40.9,30.2-77.8,60.8-102.5,103.8-.8,1-.4,1.9,1.1,1.8,21.5-1.1,40.8-1.7,60.8-3.3,3.5-.3,3.6-1.2,3.3-3.7-1.8-14.8,2.6-31.7,15.6-43.4,13.3-12,30-13.3,41.1-4.7,12.6,9.8,11.5,27.5,4.6,40.7-7,13.4-18.6,20.6-29.7,24.1,0,0-2.3.5-2,2.6.4,3.4,15.6,11.8,16.9,14,1.2,2.1.6,5.4-1.7,7.9-1.6,1.8-4.1,3.6-7.3,3.5-2.6,0-4.2-.9-7.5-2.7-6.8-3.7-15.3-9.7-20.9-16.9-1.9-2.4-2.9-2.5-7.7-2.2-21.7,1.3-55.5,4.5-78.5,7.4-5.5.7-6.4,1.7-7.5,3.7-36.5,60.3-75.6,125.3-118.4,168.8-46,46.7-84.2,59-124.7,59.3h.1ZM838.2,274.7c.6,3.1,1.8,3.7,3.2,3.4,7-1.4,14.6-7.1,19.1-13.8,4.1-6,6-14.7,2-18.2-3.7-3.1-9.6-2.2-14,1.6-8.7,7.7-11.4,18.7-10.3,26.9"/>
</svg>