<?xml version="1.0" encoding="UTF-8"?>
<svg id="Layer_1" xmlns="http://www.w3.org/2000/svg" version="1.1" viewBox="0 0 976.222 499.245">
  <!-- Generator: Adobe Illustrator 30.5.1, SVG Export Plug-In . SVG Version: 2.1.4 Build 3)  -->
  <defs>
    <style>
      .st0 {
        fill: #242122;
      }

      .st1 {
        fill: #ec1b24;
      }
    </style>
  </defs>
  <path class="st1" d="M290.298,495.975c-82.642,13.452-166.058-15.138-222.927-75.865C-28.284,317.967-21.275,157.078,83.272,63.584c94.939-84.902,238.724-84.727,333.516.21,57.425,51.455,87.913,126.416,82.441,203.538-8.172,115.175-94.846,210.073-208.93,228.643ZM373.97,385.577l-.003-271.921-76.162-.026.017,103.668-96.49.017.019-103.679-75.473.028v271.964s75.47.043,75.47.043l.013-102.766,96.453.037-.003,102.748,76.16-.113Z"/>
  <path class="st0" d="M819.996,184.254c-15.196,20.512-48.29,21.758-65.707,4.11-7.86-7.965-10.963-18.35-11.068-29.385-.169-17.621,9.75-32.606,26.205-38.786,11.685-4.388,23.775-3.96,35.09,1.405,14.427,6.839,23.133,20.64,23.207,36.767.043,9.396-2.115,18.314-7.727,25.89ZM806.096,177.493c9.69-10.519,8.716-29.915-2.51-39.024-10.928-8.867-26.72-8.691-37.098.777-10.387,9.476-10.857,28.278-1.454,38.437,10.911,11.786,30.016,11.801,41.061-.19Z"/>
  <path class="st0" d="M719.83,196.743l-18.162-25.512-18.083-.116-.079,21.413c-.015,4.086-3.383,6.829-7.166,7.09-3.156.217-7.864-1.9-7.876-6.023l-.193-66.38c-.011-3.902,2.773-7.284,6.787-7.267l32.818.138c12.324.052,21.674,9.58,23.539,21.484,1.793,11.445-3.547,22.498-14.763,27.238l14.738,17.985c2.789,3.403,2.901,7.927-.306,10.825-2.963,2.678-8.392,3.145-11.254-.875ZM717.301,145.839c.254-6.408-4.006-11.36-9.926-11.935l-23.814-.048.005,24.115,23.242-.103c6.191-.027,10.505-5.622,10.492-12.03Z"/>
  <path class="st0" d="M604.194,191.32l.056-24.3-37.371.105-.182,25.819c-.029,4.107-3.624,6.907-7.734,6.337-3.011.077-7.151-2.06-7.154-5.623l-.059-67.619c-.003-3.441,3.29-5.471,6.136-5.948,2.534-.425,4.547.013,6.409,1.488,1.513,1.198,2.492,3.282,2.498,5.691l.063,24.962,37.384.007.033-25.044c.005-3.988,3.074-6.527,6.632-7.169,3.091-.558,8.162,1.573,8.159,5.777l-.042,68.073c-.003,4.18-5.266,5.908-8.26,5.426-3.916-.63-6.578-3.765-6.569-7.98Z"/>
  <path class="st0" d="M914.486,185.302l-5.629,10.947c-1.82,3.54-7.073,4.595-10.597,2.56-3.355-1.937-4.745-6.497-2.889-10.118l33.651-65.658c1.242-2.422,4.225-3.564,6.41-3.678,2.569-.134,5.477,1.165,6.817,3.832l33.397,66.485c1.768,3.519-.844,7.328-3.602,8.856-2.883,1.597-7.393,1.943-9.155-1.41l-6.165-11.73-42.237-.086ZM948.567,170.246l-12.948-28.328-14.265,28.438,27.213-.11Z"/>
  <path class="st0" d="M786.91,329.465c-20.588-6.173-34.401-23.619-35.657-44.778l.027-10.989c1.314-20.52,14.812-37.559,34.36-43.903,14.256-4.627,29.405-4.476,43.473.182,21.766,7.207,34.125,26.78,34.207,49.249.079,21.684-11.285,41.053-32.098,48.854-14.062,5.27-29.474,5.833-44.311,1.385ZM854.267,292.388c5.322-22.029-2.543-45.663-24.201-54.698-14.082-5.875-29.809-6.111-44.066-.809-21.263,7.908-29.874,28.401-27.014,50.54,1.892,14.646,10.732,27.092,24.337,33.09,26.864,11.844,63.476,2.791,70.945-28.123Z"/>
  <path class="st0" d="M699.194,328.873c-15.601,5.2-32.396,4.731-47.373-1.298-20.099-8.091-30.871-27.192-30.817-48.36.054-21.55,11.427-40.618,32.004-48.425,14.882-5.647,31.493-5.786,46.55-.688,21.569,7.303,33.782,26.836,33.85,49.094.069,22.532-12.055,42.292-34.215,49.678ZM703.259,319.394c15.041-7.587,22.462-22.754,22.635-38.96.266-24.922-13.655-42.214-38.115-46.384l-19.135-.307c-24.31,3.157-39.96,20.124-40.091,44.837-.044,8.39,1.224,16.272,5.191,23.61s9.52,13.24,17.172,17.101c16.234,8.192,35.746,8.476,52.344.103Z"/>
  <path class="st0" d="M974.084,263.455c6.043,23.576-.701,50.628-24.333,60.97-7.459,3.313-15.08,5.692-23.431,5.763l-41.863.359-.01-102.139,36.588.046c10.153.013,19.754,1.838,28.846,6.027,12.292,5.596,20.84,15.855,24.203,28.974ZM966.337,263.259c-2.875-9.593-9.212-17.047-18.038-21.697-7.629-3.829-15.707-6.034-24.365-6.094l-32.108-.222.023,88.382,29.448-.141c8.701-.042,16.935-1.557,24.801-5.163,21.212-9.199,26.474-34.264,20.239-55.066Z"/>
  <path class="st0" d="M872.883,134.416l-.195,59.217c-.013,4.065-4.223,6.234-7.478,6.262-3.631.031-7.466-2.631-7.474-6.863l-.112-58.67-20.136-.056c-3.957-.011-6.949-2.824-7.368-6.314-.435-3.619,1.803-8.164,6.091-8.179l55.507-.187c4.412-.015,7.51,2.565,7.899,6.697.361,3.83-2.503,7.88-6.878,7.918l-19.855.174Z"/>
  <path class="st0" d="M608.393,273.68c.698,2.288.468,4.424.144,6.943l-49.509-.033.009,49.84-7.329-.042-.012-101.996,68.355.005-.015,6.867-61.02-.028.009,38.482,49.367-.038Z"/>
  <path class="st0" d="M651.109,193.414c-.007,4.165-4.369,6.259-7.522,6.28-3.132.021-7.396-2.251-7.406-6.124l-.183-66.337c-.013-4.686,3.395-7.578,7.931-7.516,3.932.054,7.305,2.651,7.298,6.915l-.117,66.781Z"/>
  <path class="st0" d="M736.646,393.316l-.224-24.858-11.537,16.416-11.36-16.372-.161,24.814c-1.184.152-2.211.153-3.482-.048l.035-30.936c.925-.39,3.226-.68,3.815.187l11.288,16.615,11.237-16.719c.85-.523,2.449-.451,3.716-.205l.012,31.113c-.743.095-1.575.242-3.338-.007Z"/>
  <path class="st0" d="M893.865,393.204l-13.463.173.003-31.244,12.063-.014c8.493-.01,15.042,6.381,15.547,14.528.508,8.194-5.21,15.681-14.15,16.557ZM893.619,390.03c7.09-.965,11.241-6.855,10.769-13.209-.492-6.622-5.682-11.542-12.622-11.533l-7.967.01.102,24.794,9.718-.061Z"/>
  <path class="st0" d="M800.596,393.228l-8.964-12.044-9.111-.018v12.144s-3.401.09-3.401.09l.025-31.302,16.069.187c5.126.06,8.65,4.202,8.766,8.773.123,4.843-2.853,8.506-8.496,9.571l9.544,12.606c-1.476.295-2.694.267-4.432-.007ZM794.63,377.834c3.889-.647,5.933-3.526,5.802-6.755-.122-3.014-2.43-5.597-5.918-5.642l-11.996-.157.049,12.832,12.062-.277Z"/>
  <path class="st0" d="M699.013,393.387l-8.963-12.114-9.107-.116.021,12.155c-1.136.165-2.185.212-3.5-.031l-.004-31.317,16.389.382c4.89.114,8.344,4.371,8.445,8.76.111,4.817-3.197,8.642-8.549,9.476l9.411,12.615-4.143.191ZM693.207,377.759c3.685-.671,5.671-3.54,5.552-6.626-.12-3.116-2.744-5.673-6.157-5.711l-11.692-.13.091,12.82,12.206-.354Z"/>
  <path class="st0" d="M946.211,378.474c-.368,9.008-7.436,15.373-15.696,15.521-8.629.154-15.785-6.351-16.242-15.201-.456-8.823,5.378-16.205,14.035-17.175,10.086-1.13,18.335,6.284,17.902,16.855ZM942.625,377.81c.02-7.683-5.776-13.307-12.697-13.125-7.161.188-12.317,6.057-12.072,13.453.237,7.143,5.732,12.762,12.625,12.616,6.699-.142,12.124-5.526,12.143-12.943Z"/>
  <path class="st0" d="M667.669,379.289l-16.996-.056v11.042s19.372.041,19.372.041c.161,1.111.167,1.95.01,3.081l-22.814-.03.056-31.253,22.636.015-.008,3.143-19.259-.006.015,10.607,17.109.109-.12,3.306Z"/>
  <path class="st0" d="M769.574,379.297l-17.03-.103.014,11.099,19.382.017-.01,3.074-22.998-.007-.017-31.256,22.554-.044c.302,1.24.246,2.128-.045,3.186l-18.875-.013.023,10.731,17.015-.016-.013,3.331Z"/>
  <path class="st0" d="M866.847,385.255l-17.339-.084-3.645,8.051c-1.249.246-2.285.341-3.608.003l14.227-31.326c.798-.404,2.583-.395,3.367.014l14.275,31.444c-1.236.198-2.336.039-3.729-.072l-3.547-8.03ZM865.247,381.885l-7.128-15.934-7.167,15.925,14.295.01Z"/>
  <path class="st0" d="M620.74,382.314l-.06,10.985c-1.289.194-2.344.206-3.56-.029l.013-31.111,13.323-.005c5.536-.002,9.848,3.822,10.28,8.96.435,5.168-2.988,9.581-8.386,10.773-3.63.801-7.136.481-11.611.428ZM631.4,378.811c3.992-.819,6.192-4.15,5.754-7.625-.414-3.283-3.058-5.772-6.768-5.811l-9.721-.104.044,13.93c3.593-.01,7.005.366,10.691-.39Z"/>
  <path class="st0" d="M568.025,393.616c-5.777,1.177-11.42-.905-15.64-4.625.3-1.019,1.202-2.297,2.343-2.436,3.677,3.404,8.98,5.187,13.832,3.578,2.378-.789,3.605-2.824,3.625-5.003.02-2.216-1.559-3.98-3.953-4.654l-8.5-2.394c-3.634-1.024-6.09-3.642-6.268-7.028-.185-3.52,1.379-6.745,4.931-8.323,5.182-2.302,11.706-1.138,16.079,2.475.166.898-1.142,2.609-1.952,2.567-3.314-2.191-7.258-3.765-11.201-2.777-2.602.652-4.281,2.489-4.364,4.862-.226,6.429,9.529,4.883,15.551,8.825,3.08,2.017,3.735,5.513,2.728,9.168-.731,2.651-3.481,5.006-7.209,5.766Z"/>
  <path class="st0" d="M969.615,392.904c-6.163,2.498-12.803.36-17.843-3.799.423-1.214,1.142-2.011,2.251-2.624,3.879,3.687,9.257,5.31,14.249,3.49,2.148-.783,3.355-2.903,3.342-4.823-.015-2.278-1.692-4.067-4.063-4.721l-8.543-2.357c-3.574-.986-5.968-3.689-6.199-7.056-.245-3.576,1.654-6.99,5.301-8.44,5.009-1.992,10.937-1.012,15.343,2.346.873.666-.856,3.249-1.583,2.81-3.707-2.24-7.547-4.015-11.727-2.527-2.307.821-3.767,2.469-3.806,4.669-.04,2.21,1.264,4.091,3.672,4.775l8.93,2.537c3.694,1.05,6.096,3.865,6.197,7.445.096,3.407-1.686,6.722-5.52,8.276Z"/>
  <path class="st0" d="M605.357,362.521c.656-.595,2.321-.621,3.239-.264l-.023,19.489c-.009,7.371-5.753,12.26-12.895,12.286-7.512.028-13.031-5.149-13.068-12.689l-.092-18.973c.997-.348,2.122-.46,3.385-.071l.181,19.169c.053,5.603,4.104,9.209,9.57,9.252,5.576.044,9.502-3.722,9.548-9.337l.154-18.863Z"/>
  <path class="st0" d="M813.931,377.805c.059,5.412,2.794,9.737,6.963,11.714,8.591,4.074,14.415-3.042,15.583-2.859.504.079,1.143.573,1.937,1.656-4.34,5.323-11.957,7.26-18.709,4.384-6.013-2.561-9.873-8.997-9.377-16.151.562-8.11,6.621-14.62,14.809-14.994,5.073-.232,9.704,1.154,13.081,4.848-.714,1.167-1.517,1.96-2.392,2.49-3.879-3.869-9.269-5.311-14.205-3.328-4.551,1.828-7.753,6.46-7.691,12.24Z"/>
</svg>