<?xml version="1.0" encoding="UTF-8" standalone="no"?>
<svg
   fill="none"
   height="210"
   width="500"
   version="1.1"
   id="svg323"
   xmlns="http://www.w3.org/2000/svg"
   xmlns:svg="http://www.w3.org/2000/svg">
  <defs
     id="defs327" />
  <g
     clip-path="none"
     id="g321"
     style="display:inline"
     transform="matrix(6.1731444,0,0,6.1731444,0.03086381,-12.323778)">
    <path
       d="m 21.113,6.55 h -2.696 v 10.71 h 2.696 z m 46.525,0 -4.331,10.71 h -2.84 L 56.052,6.55 h 2.963 l 2.883,7.582 2.86,-7.581 z m 9.134,5.345 c 0,-2.008 -1.428,-3.315 -3.15,-3.315 -1.805,0 -3.15,1.339 -3.15,3.315 0,1.975 1.345,3.234 3.15,3.234 1.73,0 3.15,-1.256 3.15,-3.234 z m 1.388,5.356 -1.263,-3.894 -0.185,2.698 c -0.788,0.906 -1.928,1.502 -3.587,1.502 -3.212,0 -5.452,-2.428 -5.452,-5.662 0,-3.235 2.22,-5.735 5.431,-5.735 a 4.676,4.676 0 0 1 3.564,1.505 V 6.553 h 2.687 v 5.915 l 1.636,4.8 z M 16.17,10.314 v 6.948 h -2.73 v -6.515 c 0,-1.502 -0.673,-2.253 -1.89,-2.253 -1.409,0 -2.101,1 -2.101,2.775 v 5.987 H 6.722 v -6.483 c 0,-1.147 -0.485,-2.274 -1.85,-2.274 -1.365,0 -2.078,1.104 -2.142,2.816 v 5.947 H -0.005 V 6.412 h 2.73 V 9.397 L 3.377,6.894 A 3.267,3.267 0 0 1 5.729,6.016 c 1.93,0 3.316,1.23 3.653,3.255 L 9.959,6.894 a 3.178,3.178 0 0 1 2.332,-0.878 c 2.416,0 3.864,1.523 3.864,4.301 m 1.858,-6.589 c 0,-0.34 0.102,-0.673 0.292,-0.956 A 1.73,1.73 0 0 1 20.082,2.041 1.717,1.717 0 0 1 21.344,4.387 1.723,1.723 0 0 1 20.707,5.159 1.74,1.74 0 0 1 18.52,4.945 1.715,1.715 0 0 1 18.013,3.728 Z m 15.763,7.252 v 6.282 H 31.08 V 11.37 c 0,-1.915 -0.64,-2.738 -2.132,-2.738 -1.576,0 -2.488,1.092 -2.488,2.965 v 5.665 H 23.765 V 6.553 h 2.695 v 3.108 l 0.6,-2.428 c 0.6,-0.64 1.443,-1.073 2.756,-1.073 2.572,0 3.96,1.689 3.96,4.82 z m 4.709,-0.143 h 4.851 c 0,-1.463 -0.865,-2.452 -2.343,-2.452 -1.264,0 -2.236,0.743 -2.508,2.452 z m 7.65,1.892 h -7.67 c 0.248,1.875 1.328,2.618 2.82,2.618 1.408,0 2.308,-0.556 2.86,-1.792 l 1.907,1.72 c -1.056,1.546 -2.82,2.294 -4.851,2.294 -3.463,0 -5.596,-2.345 -5.596,-5.62 0,-3.357 2.28,-5.789 5.483,-5.789 3.131,0 5.12,2.265 5.12,5.54 a 6.34,6.34 0 0 1 -0.06,1.03 M 54.91,6.447 V 9.06 A 4.58,4.58 0 0 0 53.518,8.854 c -1.532,0 -2.548,1.133 -2.548,3.234 v 5.161 H 48.275 V 6.553 h 2.695 v 3.52 l 0.6,-2.8 a 3.079,3.079 0 0 1 2.26,-0.99 2.67,2.67 0 0 1 1.08,0.166"
       fill="#2b3d4a"
       id="path317" />
    <path
       d="M 7.048,26.65 H 3.815 v 9.044 H 1.908 v -9.043 h -1.913 v -1.669 h 1.907 v -1.276 c 0,-2.039 1.328,-3.5 3.4,-3.5 a 6.577,6.577 0 0 1 1.555,0.183 v 1.648 A 5.606,5.606 0 0 0 5.654,21.914 c -1.155,0 -1.844,0.536 -1.844,1.852 v 1.216 h 3.232 z m 3.358,3.664 c 0,2.391 1.616,3.934 3.792,3.934 2.176,0 3.815,-1.543 3.815,-3.934 0,-2.391 -1.596,-3.931 -3.815,-3.931 -2.219,0 -3.792,1.562 -3.792,3.93 z m 9.575,0 c 0,3.357 -2.528,5.686 -5.771,5.686 -3.243,0 -5.74,-2.329 -5.74,-5.686 0,-3.358 2.508,-5.683 5.74,-5.683 3.232,0 5.771,2.328 5.771,5.683 z m 3.628,0 c 0,2.391 1.616,3.934 3.792,3.934 2.176,0 3.815,-1.543 3.815,-3.934 0,-2.391 -1.596,-3.931 -3.815,-3.931 -2.22,0 -3.792,1.562 -3.792,3.93 z m 9.575,0 c 0,3.357 -2.528,5.686 -5.772,5.686 -3.244,0 -5.74,-2.329 -5.74,-5.686 0,-3.358 2.508,-5.683 5.74,-5.683 3.232,0 5.772,2.328 5.772,5.683 z m 11.252,0.024 c 0,-2.225 -1.512,-3.977 -3.812,-3.977 -2.384,0 -3.815,1.752 -3.815,3.977 0,2.225 1.443,3.934 3.815,3.934 2.309,0 3.812,-1.72 3.812,-3.934 z m 1.443,5.356 -1.347,-4.057 -0.208,2.595 c -0.828,1.009 -2.136,1.772 -4,1.772 -3.296,0 -5.451,-2.492 -5.451,-5.663 0,-3.171 2.155,-5.706 5.45,-5.706 a 4.91,4.91 0 0 1 4.064,1.916 v -5.996 h 1.905 v 10.503 l 1.59,4.636 z m 12.387,-7.932 -1.824,0.68 c -0.084,-1.38 -1.06,-2.246 -2.696,-2.246 -1.471,0 -2.343,0.7 -2.343,1.606 0,2.535 7.007,0.723 7.007,4.923 0,2.099 -1.784,3.275 -4.476,3.275 -2.78,0 -4.52,-1.36 -4.851,-3.295 l 1.864,-0.783 c 0.084,1.626 1.244,2.512 2.987,2.512 1.368,0 2.424,-0.473 2.424,-1.586 0,-2.511 -6.926,-0.639 -6.926,-4.923 0,-1.915 1.968,-3.294 4.311,-3.294 2.508,0 4.248,1.256 4.52,3.13"
       fill="#e84752"
       id="path319" />
  </g>
</svg>
