<?xml version="1.0" encoding="UTF-8"?>
<svg id="Layer_1" xmlns="http://www.w3.org/2000/svg" version="1.1" viewBox="0 0 112.095 36.344">
  <!-- Generator: Adobe Illustrator 30.5.1, SVG Export Plug-In . SVG Version: 2.1.4 Build 3)  -->
  <defs>
    <style>
      .st0 {
        fill: #1ed760;
      }
    </style>
  </defs>
  <path class="st0" d="M18.171,0C8.118,0,0,8.142,0,18.172s8.14,18.172,18.172,18.172,18.172-8.14,18.172-18.172S28.204,0,18.172,0h-.001ZM26.508,26.226c-.326.543-1.02.695-1.563.37-4.277-2.605-9.64-3.19-15.98-1.76-.608.13-1.216-.24-1.346-.847s.24-1.216.847-1.346c6.926-1.585,12.874-.912,17.65,2.02.543.326.716,1.02.39,1.563h.002ZM28.722,21.276c-.412.673-1.28.868-1.954.478-4.885-2.996-12.33-3.864-18.106-2.128-.76.217-1.54-.195-1.76-.934-.217-.76.195-1.54.955-1.76,6.6-1.997,14.806-1.042,20.43,2.4.65.39.847,1.26.434,1.932v.012ZM28.917,16.109c-5.862-3.474-15.523-3.8-21.124-2.106-.9.282-1.845-.24-2.128-1.13s.24-1.845,1.13-2.128c6.426-1.954,17.108-1.563,23.838,2.432.803.478,1.064,1.52.586,2.323-.434.825-1.498,1.086-2.3.608h-.002ZM45.797,17.628c-3.099-.727-3.634-1.261-3.634-2.351,0-1.026.962-1.71,2.394-1.71,1.389,0,2.779.534,4.232,1.603.043.043.107.043.15.043.064,0,.107-.043.128-.086l1.518-2.138c.063-.089.044-.212-.043-.278-1.731-1.389-3.676-2.052-5.942-2.052-3.335,0-5.664,2.009-5.664,4.873,0,3.078,2.009,4.168,5.493,5.002,2.95.684,3.463,1.261,3.463,2.266,0,1.133-1.005,1.838-2.629,1.838-1.795,0-3.27-.599-4.916-2.031-.043-.043-.107-.043-.15-.043-.064,0-.107.021-.128.064l-1.689,2.009c-.064.086-.064.214.021.278,1.924,1.71,4.275,2.608,6.819,2.608,3.591,0,5.921-1.966,5.921-5.002-.043-2.565-1.582-3.976-5.344-4.895ZM59.242,14.572c-1.56,0-2.843.62-3.89,1.881v-1.411c0-.107-.085-.192-.192-.192h-2.757c-.107,0-.192.086-.192.192v15.732c0,.107.085.192.192.192h2.757c.107,0,.192-.085.192-.192v-4.959c1.047,1.176,2.33,1.753,3.89,1.753,2.886,0,5.835-2.223,5.835-6.498-.021-4.254-2.95-6.498-5.835-6.498ZM61.85,21.07c0,2.18-1.347,3.677-3.249,3.677s-3.313-1.582-3.313-3.676,1.432-3.676,3.313-3.676,3.249,1.539,3.249,3.676ZM72.58,14.572c-3.719,0-6.648,2.864-6.648,6.541,0,3.634,2.907,6.477,6.605,6.477,3.741,0,6.669-2.864,6.669-6.519,0-3.634-2.907-6.498-6.626-6.498ZM72.58,24.768c-1.988,0-3.484-1.603-3.484-3.698,0-2.116,1.453-3.655,3.441-3.655s3.505,1.603,3.505,3.719c-.021,2.095-1.475,3.634-3.463,3.634ZM87.158,14.828h-3.035v-3.121c0-.107-.085-.192-.192-.192h-2.757c-.107,0-.192.086-.192.192v3.121h-1.325c-.107,0-.192.086-.192.192v2.373c0,.107.085.192.192.192h1.325v6.156c0,2.479,1.24,3.741,3.677,3.741.983,0,1.817-.214,2.586-.641.064-.043.107-.107.107-.171v-2.266c0-.064-.043-.128-.085-.171-.064-.043-.128-.043-.192,0-.534.278-1.047.385-1.625.385-.898,0-1.283-.406-1.283-1.304v-5.707h3.035c.107,0,.192-.086.192-.192v-2.373c-.021-.128-.107-.214-.235-.214ZM97.781,14.85v-.385c0-1.133.428-1.624,1.389-1.624.577,0,1.047.107,1.56.278.064.021.128,0,.192-.021.043-.043.085-.107.085-.171v-2.33c0-.086-.064-.171-.15-.192-.556-.171-1.24-.321-2.308-.321-2.565,0-3.912,1.432-3.912,4.168v.577h-1.325c-.107,0-.214.086-.214.192v2.394c0,.107.085.192.214.192h1.325v9.491c0,.107.085.192.192.192h2.757c.107,0,.192-.086.192-.192v-9.491h2.586l3.954,9.491c-.449,1.005-.898,1.197-1.496,1.197-.492,0-1.005-.15-1.518-.428-.043-.021-.107-.021-.171-.021-.043.021-.107.064-.128.107l-.94,2.052c-.043.107,0,.214.085.256.983.534,1.86.748,2.95.748,2.052,0,3.163-.962,4.168-3.506l4.809-12.398c.021-.064.021-.128-.021-.192s-.107-.086-.171-.086h-2.886c-.086,0-.171.064-.192.128l-2.95,8.422-3.228-8.443c-.021-.086-.107-.128-.192-.128h-4.66v.043ZM91.625,14.828h-2.757c-.107,0-.192.086-.192.192v12.077c0,.107.085.192.192.192h2.757c.107,0,.192-.086.192-.192v-12.056c.021-.128-.085-.214-.192-.214ZM90.257,9.335c1.098,0,1.988.89,1.988,1.988s-.89,1.988-1.988,1.988-1.988-.89-1.988-1.988.89-1.988,1.988-1.988Z"/>
</svg>