<?xml version="1.0" encoding="UTF-8"?>
<svg id="Layer_2" xmlns="http://www.w3.org/2000/svg" version="1.1" viewBox="0 0 540 540">
  <!-- Generator: Adobe Illustrator 30.1.0, SVG Export Plug-In . SVG Version: 2.1.1 Build 136)  -->
  <defs>
    <style>
      .st0 {
        fill: #f7f7f7;
      }
    </style>
  </defs>
  <path class="st0" d="M512,222.9c-6.8-15.9-16.8-30.2-29.7-42.5-4.9-21.4-16.4-41.5-34.1-60-.8-.8-1.6-1.6-2.4-2.4-23.4-23.2-54.8-36-88.3-36h-133.3l-34.9,63-37.3-63H62.5l-44.5,80.4,126.3,229.1h80.5l36.8,66.5h51.3c36.1,0,71.4-8.9,102.1-25.7,1.3-.7,2.6-1.4,3.8-2.2,22.3-12.7,68.6-39.2,90.6-96.6,5.8-15.2,23.6-61.5,2.6-110.7ZM179.6,162.7l-30.7,55.6-31.1-56.3,29.7-53.6,32.2,54.3ZM72.6,99.7h59.7l-29.6,53.5h-59.7c0,0,29.6-53.5,29.6-53.5ZM42.6,171h60.1l46.1,83.3,36.8-66.5,9.1-16.3,9.8-17.7,15.8-28.5,14.1-25.5h123.2c29,0,56.1,11,76.3,31,.7.7,1.4,1.4,2.1,2.1,6.7,7,27,28.2,31.2,60.5,4.6,35.5-13.1,63-24.8,81.3-17.3,26.9-41.5,49.3-72.1,66.5-32.1,18.1-71.8,32.7-109.4,32.7h-16l33.6-60.7c17.8-.6,35.1-4.2,51.4-10.7,15-6,50.1-20.1,69.6-58,.7-1.4,1.5-2.9,2.3-4.4,7.9-15,18.8-35.5,9.6-56.3-12.5-28.4-44.2-30.6-53.6-30.6h-91.8l-.2.3-9.8,17.7h0l-10.4,18.8-63.7,115.1-32.5,59.4L42.6,171ZM288.4,294.7l27.4-49.5h62.8c-17,25.4-42.5,35.7-55.4,40.8-11.2,4.5-22.9,7.4-34.9,8.7ZM164.1,373.8l32.8-60,78.9-142.7,81.8-.3c8.7,0,29.8,2,37.8,20.2,5.1,11.4-.6,24.4-6.8,36.4h-82.8l-81,146.4h-60.7ZM493.3,327.2c-19.8,51.4-62.4,75.8-83,87.6-1.2.7-2.4,1.3-3.5,2-28.2,15.4-60.6,23.6-93.9,23.6h-41.2l-27-48.8h16c40.5,0,83.1-15.4,117.8-34.9,33.1-18.6,59.4-43,78.3-72.4,10.4-16.2,26.6-41.5,28.2-74.2,4.4,6.3,8.2,12.9,11.2,20,18.1,42.5,2.9,82.2-2.9,97.2Z"/>
</svg>